<?xml version="1.0" standalone="no"?>
<!DOCTYPE svg PUBLIC "-//W3C//DTD SVG 20010904//EN"
 "http://www.w3.org/TR/2001/REC-SVG-20010904/DTD/svg10.dtd">
<svg version="1.0" xmlns="http://www.w3.org/2000/svg"
 width="301.000000pt" height="301.000000pt" viewBox="0 0 301.000000 301.000000"
 preserveAspectRatio="xMidYMid meet">
<metadata>
Created by potrace 1.11, written by Peter Selinger 2001-2013
</metadata>
<g transform="translate(0.000000,301.000000) scale(0.100000,-0.100000)"
fill="#000000" stroke="none">
<path d="M0 1505 l0 -1505 1505 0 1505 0 0 1505 0 1505 -1505 0 -1505 0 0
-1505z m1616 761 c56 -37 87 -87 92 -151 11 -129 -77 -226 -203 -226 -235 0
-283 324 -60 403 41 15 131 1 171 -26z m374 -701 c46 -24 70 -62 70 -111 0
-58 -16 -90 -59 -117 -36 -22 -38 -22 -496 -22 -458 0 -460 0 -496 22 -43 27
-59 59 -59 116 0 49 19 80 64 108 29 18 56 19 489 19 385 0 463 -2 487 -15z
m-707 -618 c83 -63 63 -189 -36 -226 -18 -7 -133 -11 -305 -11 -249 0 -281 2
-311 18 -37 20 -71 73 -71 110 0 56 43 115 96 132 16 5 155 8 310 7 l281 -2
36 -28z m1087 15 c43 -21 80 -75 80 -117 0 -42 -37 -96 -80 -117 -31 -16 -68
-18 -310 -18 -249 0 -279 2 -310 19 -51 27 -73 62 -73 116 0 54 23 92 74 117
30 16 67 18 309 18 242 0 279 -2 310 -18z"/>
</g>
</svg>
