<?xml version="1.0" encoding="UTF-8" standalone="no"?><!DOCTYPE svg PUBLIC "-//W3C//DTD SVG 1.1//EN" "http://www.w3.org/Graphics/SVG/1.1/DTD/svg11.dtd"><svg width="100%" height="100%" viewBox="0 0 128 128" version="1.1" xmlns="http://www.w3.org/2000/svg" xmlns:xlink="http://www.w3.org/1999/xlink" xml:space="preserve" xmlns:serif="http://www.serif.com/" style="fill-rule:evenodd;clip-rule:evenodd;stroke-linejoin:round;stroke-miterlimit:1.41421;"><rect id="bookssm" x="0" y="0" width="128" height="128" style="fill:none;"/><g><path d="M60.032,113.857l-49.486,-27.337c-0.234,-0.146 -0.299,-0.174 -0.508,-0.356c-0.47,-0.41 -0.8,-0.97 -0.932,-1.579c-0.058,-0.271 -0.051,-0.342 -0.066,-0.617l0,-68.985c0.089,-1.614 1.374,-2.933 3.114,-2.91c0.56,0.069 0.704,0.111 1.212,0.357l50.187,27.724c0.229,0.143 0.297,0.172 0.495,0.345c0.132,-0.106 0.212,-0.147 0.399,-0.264l50.187,-27.724c0.439,-0.212 0.575,-0.453 1.847,-0.33c1.379,0.287 2.4,1.451 2.479,2.883l0,68.985c-0.015,0.275 -0.008,0.346 -0.066,0.617c-0.132,0.609 -0.462,1.169 -0.932,1.579c-0.209,0.182 -0.274,0.21 -0.508,0.356l-49.588,27.393l0,0.006l-0.095,0.046l-0.504,0.279c-0.124,0.06 -0.25,0.11 -0.377,0.151l-2.977,1.451l-3.922,-2.057l0.041,-0.013Zm8.741,-69.349l0,62.322l44.355,-24.502l0,-62.322c-14.785,8.167 -29.57,16.334 -44.355,24.502Zm-53.901,37.739l44.355,24.502l0,-62.322l-44.355,-24.502c0,20.774 0,41.548 0,62.322Z"/><path d="M55.569,55.681l-4.283,-2.604l-31.002,21.604l4.213,2.566l31.072,-21.566Z" style="fill:#ff4141;"/><circle cx="46.865" cy="82.972" r="7.084" style="fill:#b3ff00;"/><path d="M77.681,75.289l3.809,-2.379l9.562,15.307l-3.809,2.38l-9.562,-15.308Z" style="fill:#8c23c5;"/><circle cx="100.324" cy="75.892" r="5.814" style="fill:#f8ff00;"/><rect x="23.537" y="38.77" width="14.603" height="14.1" style="fill:#ff9b00;"/><rect x="98.304" y="34.155" width="8.106" height="22.249" style="fill:#0d00ff;"/><path d="M85.108,44.084l-10.147,19.121l20.399,-0.063l-10.252,-19.058Z" style="fill:#90ffde;"/></g><g><circle cx="23.945" cy="24.422" r="18.371" style="fill:#0f7aff;"/><text x="8.692px" y="21.689px" style="font-family:'Avenir-Black', 'Avenir', sans-serif;font-weight:800;font-size:6.731px;fill:#fff;">C<tspan x="13.471px 19.24px 25.763px 27.923px 33.578px " y="21.689px 21.689px 21.689px 21.689px 21.689px ">OMING</tspan></text><text x="12.349px" y="32.14px" style="font-family:'Avenir-Black', 'Avenir', sans-serif;font-weight:800;font-size:7.402px;fill:#fff;">S<tspan x="16.783px 23.127px 29.471px " y="32.14px 32.14px 32.14px ">OON</tspan></text></g></svg>