<?xml version="1.0" encoding="UTF-8" standalone="no"?><!DOCTYPE svg PUBLIC "-//W3C//DTD SVG 1.1//EN" "http://www.w3.org/Graphics/SVG/1.1/DTD/svg11.dtd"><svg width="100%" height="100%" viewBox="0 0 112 99" version="1.1" xmlns="http://www.w3.org/2000/svg" xmlns:xlink="http://www.w3.org/1999/xlink" xml:space="preserve" xmlns:serif="http://www.serif.com/" style="fill-rule:evenodd;clip-rule:evenodd;stroke-linejoin:round;stroke-miterlimit:1.41421;"><rect id="bookssm" x="0" y="0" width="111.284" height="98.074" style="fill:none;"/><path d="M51.193,92.472l-39.619,-21.886c-0.188,-0.117 -0.24,-0.139 -0.407,-0.285c-0.376,-0.329 -0.641,-0.776 -0.746,-1.264c-0.047,-0.217 -0.041,-0.274 -0.053,-0.494l0,-55.232c0.071,-1.292 1.1,-2.348 2.493,-2.329c0.449,0.055 0.563,0.089 0.971,0.285l40.18,22.197c0.184,0.114 0.238,0.138 0.397,0.276c0.105,-0.085 0.169,-0.118 0.319,-0.212l40.181,-22.196c0.352,-0.17 0.46,-0.363 1.479,-0.264c1.104,0.23 1.922,1.161 1.985,2.308l0,55.231c-0.012,0.221 -0.006,0.278 -0.053,0.494c-0.106,0.488 -0.37,0.936 -0.746,1.265c-0.167,0.146 -0.22,0.168 -0.407,0.285l-39.701,21.931l-0.001,0.005l-0.075,0.037l-0.404,0.223c-0.099,0.048 -0.2,0.088 -0.302,0.121l-2.383,1.162l-3.14,-1.647l0.032,-0.011Zm6.999,-55.522l0,49.897l35.511,-19.617l0,-49.897c-11.837,6.539 -23.674,13.078 -35.511,19.617Zm-43.155,30.215l35.512,19.617l0,-49.897l-35.512,-19.617c0,16.632 0,33.265 0,49.897Z"/><path d="M47.62,45.896l-3.429,-2.085l-24.821,17.296l3.373,2.054l24.877,-17.265Z" style="fill:#ff4141;"/><circle cx="40.651" cy="67.745" r="5.672" style="fill:#b3ff00;"/><path d="M65.324,61.594l3.05,-1.905l7.655,12.256l-3.05,1.905l-7.655,-12.256Z" style="fill:#8c23c5;"/><circle cx="83.452" cy="62.077" r="4.655" style="fill:#f8ff00;"/><rect x="21.974" y="32.356" width="11.691" height="11.289" style="fill:#ff9b00;"/><rect x="81.835" y="28.661" width="6.49" height="17.813" style="fill:#0d00ff;"/><path d="M71.27,36.61l-8.124,15.309l16.332,-0.05l-8.208,-15.259Z" style="fill:#90ffde;"/></svg>