<?xml version="1.0" encoding="UTF-8" standalone="no"?><!DOCTYPE svg PUBLIC "-//W3C//DTD SVG 1.1//EN" "http://www.w3.org/Graphics/SVG/1.1/DTD/svg11.dtd"><svg width="100%" height="100%" viewBox="0 0 1950 425" version="1.1" xmlns="http://www.w3.org/2000/svg" xmlns:xlink="http://www.w3.org/1999/xlink" xml:space="preserve" xmlns:serif="http://www.serif.com/" style="fill-rule:evenodd;clip-rule:evenodd;stroke-linecap:square;stroke-miterlimit:3;"><rect id="header" x="0" y="0" width="1950" height="425" style="fill:none;"/><clipPath id="_clip1"><rect x="0" y="0" width="1950" height="425"/></clipPath><g clip-path="url(#_clip1)"><rect x="-3.054" y="-1.967" width="1964.88" height="504.165" style="fill:#ffa883;"/><path d="M249.389,130.328l-14.852,-9.031l-60.554,30.305l14.61,8.897l60.796,-30.171Z" style="fill:#feff00;"/><path d="M1638.55,126.574l20.521,0.005l47.301,76.831l-20.196,0.008l-47.626,-76.844Z" style="fill:#feff00;"/><circle cx="859.553" cy="357.483" r="14.225" style="fill:#feff00;"/><circle cx="275.45" cy="287.276" r="14.225" style="fill:#feff00;"/><path d="M562.155,65.461l2.487,9.419l-76.286,20.143l-2.487,-9.419l76.286,-20.143Z" style="fill:#feff00;"/><path d="M1029.91,109.181l-10.934,11.094l-44.58,-43.936l10.934,-11.094l44.58,43.936Z" style="fill:#feff00;"/><path d="M601.692,105.837l15.464,-1.866l7.497,62.141l-15.464,1.866l-7.497,-62.141Z" style="fill:#feff00;"/><path d="M434.072,266.455l5.802,14.456l-58.089,23.312l-5.801,-14.455l58.088,-23.313Z" style="fill:#feff00;"/><path d="M1769.04,279.712l9.023,13l-48.694,33.799l-9.024,-13l48.695,-33.799Z" style="fill:#feff00;"/><circle cx="530.674" cy="155.706" r="17.168" style="fill:#feff00;"/><circle cx="476.748" cy="378.957" r="10.167" style="fill:#feff00;"/><rect x="209.463" y="212.961" width="35.86" height="34.625" style="fill:#feff00;"/><path d="M657.973,259.746l40.636,-21.066l20.341,39.236l-40.636,21.067l-20.341,-39.237Z" style="fill:#feff00;"/><path d="M1358.41,212.384l-3.478,67.728l-66.154,-3.397l3.478,-67.728l66.154,3.397Zm-58.059,53.888l44.138,2.267l2.347,-45.712l-44.138,-2.267l-2.347,45.712Z" style="fill:#feff00;"/><path d="M1368.72,341.767l25.445,25.268l-24.397,24.569l-25.446,-25.268l24.398,-24.569Z" style="fill:#feff00;"/><path d="M426.578,203.357l28.925,-50.099l-57.849,0l28.924,50.099Zm15.545,-42.374l-15.545,26.924l-7.772,-13.462l-7.772,-13.462l31.089,0Z" style="fill:#feff00;"/><path d="M482.186,243.199l79.843,32.751l-11.559,-85.522l-68.284,52.771Zm65.749,14.514l-42.909,-17.601l18.349,-14.18l18.348,-14.18l6.212,45.961Z" style="fill:#feff00;"/><path d="M1457.33,235.162l84.949,34.845l-12.298,-90.99l-72.651,56.145Zm69.954,15.442l-45.653,-18.726l19.522,-15.087l19.522,-15.087l6.609,48.9Z" style="fill:#feff00;"/><path d="M1206.96,299.896l-32.025,-4.705l16.961,33.356l15.064,-28.651Z" style="fill:#feff00;"/><path d="M852.997,127.763l15.349,28.499l16.628,-33.523l-31.977,5.024Z" style="fill:#feff00;"/><circle cx="1510.38" cy="75.925" r="14.24" style="fill:#feff00;"/><path d="M327.988,143.153l-174.045,-96.144l0,239.239l174.045,96.144l0,-239.239Z" style="fill:none;stroke:#feff00;stroke-width:15px;"/><path d="M340.87,143.434l174.045,-96.144l0,239.239l-174.045,96.144l0,-239.239Z" style="fill:none;stroke:#feff00;stroke-width:15px;"/><path d="M504.242,-8.591l192.625,85.472" style="fill:none;stroke:#feff00;stroke-width:15px;"/><path d="M108.001,-46.768l186.63,97.872" style="fill:none;stroke:#feff00;stroke-width:15px;"/><path d="M13.825,289.715l185.285,100.396" style="fill:none;stroke:#feff00;stroke-width:15px;"/><path d="M506.566,331.23l250.264,95.01" style="fill:none;stroke:#feff00;stroke-width:15px;"/><path d="M692.715,126.845l294.238,-137.427" style="fill:none;stroke:#feff00;stroke-width:15px;"/><path d="M1034.3,31.852l329.746,132.825" style="fill:none;stroke:#feff00;stroke-width:15px;"/><path d="M1393.7,83.645l313.911,-160.18" style="fill:none;stroke:#feff00;stroke-width:15px;"/><path d="M689.949,499.944l283.322,-128.212" style="fill:none;stroke:#feff00;stroke-width:15px;"/><path d="M1059.01,351.673l304.381,94.849" style="fill:none;stroke:#feff00;stroke-width:15px;"/><path d="M1365.89,489.342l230.592,-135.896" style="fill:none;stroke:#feff00;stroke-width:15px;"/><path d="M1656.89,340.845l289.005,139.436" style="fill:none;stroke:#feff00;stroke-width:15px;"/><path d="M1634.6,41.076l289.005,139.436" style="fill:none;stroke:#feff00;stroke-width:15px;"/></g></svg>