<?xml version="1.0" encoding="UTF-8" standalone="no"?><!DOCTYPE svg PUBLIC "-//W3C//DTD SVG 1.1//EN" "http://www.w3.org/Graphics/SVG/1.1/DTD/svg11.dtd"><svg width="100%" height="100%" viewBox="0 0 600 600" version="1.1" xmlns="http://www.w3.org/2000/svg" xmlns:xlink="http://www.w3.org/1999/xlink" xml:space="preserve" xmlns:serif="http://www.serif.com/" style="fill-rule:evenodd;clip-rule:evenodd;stroke-linecap:square;stroke-miterlimit:3;"><rect id="Artboard1" x="0" y="0" width="600" height="600" style="fill:none;"/><clipPath id="_clip1"><rect x="0" y="0" width="600" height="600"/></clipPath><g clip-path="url(#_clip1)"><rect x="-6.52" y="-2.054" width="613.651" height="601.366" style="fill:#2184ff;"/><g><path d="M371.765,316.826l0,-44.586l7.286,0l0,56.198l0.048,0.077l-1.043,-0.015l-15.802,0l0,-0.07l-28.008,-44.575l0,44.358l-7.286,0l0,-55.632l7.286,0l0,0.023l9.663,0l0,0.076l1.343,2.152c8.796,14.069 17.709,28.024 26.513,41.994Z" style="fill:#fff;"/><g><path d="M76.654,271.861l31.05,0l0,5.698l-16.934,0l0,14.147l17.213,0l0,5.698l-17.213,0l0,24.345l17.213,0l0,6.449l-31.181,0l0,-0.797l-0.061,0l0,-3.566l-0.011,0l-0.076,-51.974Z" style="fill:#fff;"/></g><path d="M181.431,271.77l9.86,0l0,0.016c8.109,0.082 15.798,5.873 17.99,13.77c3.027,10.91 -5.669,23.64 -17.879,23.835l-0.111,0l0,18.535l-9.86,0l0,-56.156Zm9.86,6.391l0,24.855c0.091,-0.001 0.181,-0.002 0.271,-0.005c4.79,-0.168 9.301,-3.313 11.109,-7.729c3.001,-7.332 -2.57,-16.991 -11.38,-17.121Z" style="fill:#fff;"/><path d="M240.769,271.485c12.243,0 22.183,12.645 22.183,28.22c0,15.576 -9.94,28.221 -22.183,28.221c-12.243,0 -22.183,-12.645 -22.183,-28.221c0,-15.575 9.94,-28.22 22.183,-28.22Zm0.314,9.493c7.417,0 13.438,8.537 13.438,19.052c0,10.514 -6.021,19.051 -13.438,19.051c-7.417,0 -13.439,-8.537 -13.439,-19.051c0,-10.515 6.022,-19.052 13.439,-19.052Z" style="fill:#fff;"/><path d="M312.766,328.173l-13.476,0l-0.011,0.025l-5.231,-0.162l0.001,-0.003c-5.397,-0.112 -10.834,-1.391 -14.771,-5.086c-3.447,-3.235 -5.615,-7.727 -6.208,-12.442l-0.124,-0.001l0.005,-1.239c-0.024,-0.369 -0.039,-0.739 -0.044,-1.109l-0.008,-3.436l0.071,0l0.137,-32.584c2.124,0.009 4.249,0.017 6.374,0.026l-0.154,36.83c0.534,6.366 5.509,12.434 12.133,12.548c0,0 3.355,0.064 3.355,0.064l0,-0.003l4.475,0l0,-49.742l13.476,0l0,56.314Z" style="fill:#fff;"/><g><path d="M402.8,272.514l-0.001,-0.001c0.099,0 0.195,-0.003 0.294,-0.002c12.555,0.12 24.312,9.683 26.923,22.171c3.353,16.04 -9.535,33.823 -27.216,33.767l0,-0.001l-9.485,0l0,-55.934l9.485,0Zm4.781,50.724c7.954,-1.675 14.731,-7.93 17.176,-15.692c3.815,-12.113 -3.765,-26.884 -17.092,-29.778l-0.084,-0.018c0,15.163 0,30.325 0,45.488Z" style="fill:#fff;"/><path d="M402.888,272.929c12.514,0.12 24.243,9.673 26.834,21.999c3.346,15.915 -9.505,33.577 -27.128,33.521l0,-55.52c0.098,0 0.196,0 0.294,0Zm4.751,48.705c6.913,-2.141 13.841,-8.56 15.642,-15.591c2.66,-10.383 -3.499,-22.311 -14.142,-25.749l-1.854,-0.556c0,13.634 0.354,28.262 0.354,41.896Z" style="fill:#fff;fill-rule:nonzero;"/></g><path d="M451.848,328.155l-11.579,0l0,-56.384l11.579,0l0.005,-0.001c7.627,0.728 14.572,6.476 16.559,14.013c1.84,6.976 -1.023,14.613 -6.522,19.258c4.557,7.146 10.915,17.024 14.877,23.267l-7.809,-0.005l-12.583,-20.021c-1.428,0.531 -2.943,0.887 -4.527,1.034l0,18.839Zm0,-49.878l0,24.627c5.144,-0.728 9.643,-4.858 10.603,-10.036c1.219,-6.581 -3.684,-13.61 -10.603,-14.591Z" style="fill:#fff;"/><path d="M501.519,298.717c-5.613,-8.876 -11.125,-17.838 -16.76,-26.729c2.919,0.002 5.837,0.004 8.756,0.005l12.281,19.969c4.07,-6.435 8.13,-12.874 12.158,-19.331l0.001,0l0,-0.069l16.708,0l-2.371,3.771l-0.035,0l-32.575,51.842l0,0.063l-15.473,0l-1.313,0.019c6.161,-9.875 12.395,-19.706 18.623,-29.54Z" style="fill:#fff;"/><path d="M151.684,297.719c6.366,10.049 12.737,20.093 19.005,30.14l-1.043,-0.015l-15.802,0l0,-0.071l-10.278,-16.357l-9.86,16.636l-8.54,0.046l14.019,-23.654l-18.04,-28.71l-0.04,0l-2.38,-3.787l16.775,0l0,0.077l1.342,2.152c3.461,5.536 6.949,11.068 10.446,16.598l11.158,-18.826l8.54,-0.046l-15.302,25.817Z" style="fill:#fff;"/></g><path d="M82.082,177.396l-127.848,-30.564l89.148,-96.602l38.7,127.166Zm-114.603,-34.595l104.35,24.946l-31.587,-103.792l-72.763,78.846Z" style="fill:#ff8b47;"/><path d="M-38.263,357.66l-14.263,20.548l101.517,70.463l14.262,-20.548l-101.516,-70.463Z" style="fill:#00ffd3;"/><path d="M257.387,621.874l14.835,15.051l92.937,-91.597l-14.834,-15.052l-92.938,91.598Z" style="fill:#0d00ff;"/><path d="M464.883,196.011l-59.871,-41.295l65.699,-31.202l-5.828,72.497Zm-40.509,-39.739l32.176,22.193l1.566,-19.48l1.566,-19.481l-35.308,16.768Z" style="fill:#47fff1;"/><path d="M551.875,396.285l8.44,16.407l116.036,-59.693l-8.44,-16.407l-116.036,59.693Z" style="fill:#ff9b00;"/><path d="M407.91,-59.124l-53.048,52.677l50.863,51.221l53.048,-52.678l-50.863,-51.22Z" style="fill:#0d00ff;"/><path d="M170.011,-57.68l-14.775,13.934l112.859,119.665l14.775,-13.934l-112.859,-119.665Z" style="fill:#7eff00;"/><path d="M281.957,455.743l-17.78,38.412l-24.356,-42.44l42.136,4.028Z" style="fill:#47fff1;"/><path d="M553.158,580.289l-111.581,45.769l16.153,-119.516l95.428,73.747Zm-91.885,20.283l59.965,-24.597l-25.642,-19.816l-25.642,-19.817l-8.681,64.23Z" style="fill:#ff57ea;stroke:#2184ff;stroke-width:6px;"/><circle cx="210.375" cy="130.294" r="16.81" style="fill:#f5ff00;"/><circle cx="144.474" cy="541.923" r="11.511" style="fill:#ff57ea;"/><circle cx="534.594" cy="54.604" r="10.782" style="fill:#9a00ff;"/></g></svg>