<?xml version="1.0" encoding="UTF-8" standalone="no"?><!DOCTYPE svg PUBLIC "-//W3C//DTD SVG 1.1//EN" "http://www.w3.org/Graphics/SVG/1.1/DTD/svg11.dtd"><svg width="100%" height="100%" viewBox="0 0 300 300" version="1.1" xmlns="http://www.w3.org/2000/svg" xmlns:xlink="http://www.w3.org/1999/xlink" xml:space="preserve" xmlns:serif="http://www.serif.com/" style="fill-rule:evenodd;clip-rule:evenodd;stroke-linejoin:round;stroke-miterlimit:1.41421;"><rect id="logo" x="0" y="0" width="300" height="300" style="fill:none;"/><clipPath id="_clip1"><rect x="0" y="0" width="300" height="300"/></clipPath><g clip-path="url(#_clip1)"><rect x="-7.024" y="-0.984" width="307.028" height="305.982" style="fill:#2184ff;"/><g><path d="M133.184,215.938c0,-7.426 -6.029,-13.455 -13.455,-13.455l-50.366,0c-7.426,0 -13.454,6.029 -13.454,13.455c0,7.426 6.028,13.454 13.454,13.454l50.366,0c7.426,0 13.455,-6.028 13.455,-13.454Z" style="fill:#fff;"/><path d="M244.091,215.765c0,-7.426 -6.028,-13.454 -13.454,-13.454l-50.366,0c-7.426,0 -13.455,6.028 -13.455,13.454c0,7.426 6.029,13.455 13.455,13.455l50.366,0c7.426,0 13.454,-6.029 13.454,-13.455Z" style="fill:#fff;"/><path d="M205.824,155.633c0,-7.426 -6.029,-13.455 -13.455,-13.455l-84.738,0c-7.426,0 -13.455,6.029 -13.455,13.455c0,7.426 6.029,13.455 13.455,13.455l84.738,0c7.426,0 13.455,-6.029 13.455,-13.455Z" style="fill:#fff;"/><path d="M170.727,91.335c0,-11.44 -9.287,-20.727 -20.727,-20.727c-11.44,0 -20.727,9.287 -20.727,20.727l0,0.159c0,11.44 9.287,20.727 20.727,20.727c11.44,0 20.727,-9.287 20.727,-20.727l0,-0.159Z" style="fill:#fff;"/></g></g></svg>