<?xml version="1.0" encoding="UTF-8" standalone="no"?><!DOCTYPE svg PUBLIC "-//W3C//DTD SVG 1.1//EN" "http://www.w3.org/Graphics/SVG/1.1/DTD/svg11.dtd"><svg width="100%" height="100%" viewBox="0 0 767 145" version="1.1" xmlns="http://www.w3.org/2000/svg" xmlns:xlink="http://www.w3.org/1999/xlink" xml:space="preserve" xmlns:serif="http://www.serif.com/" style="fill-rule:evenodd;clip-rule:evenodd;stroke-linejoin:round;stroke-miterlimit:1.41421;"><rect id="logo" x="0" y="0" width="766.101" height="144.829" style="fill:none;"/><g><path d="M530.937,91.309l0,-55.953l9.143,0l0,70.526l0.06,0.097l-1.309,-0.019l-19.831,0l0,-0.089l-35.148,-55.938l0,55.666l-9.143,0l0,-69.815l9.143,0l0,0.028l12.127,0l0,0.097l1.685,2.7c11.039,17.656 22.223,35.169 33.273,52.7Z" style="fill:#fff;"/><g><path d="M160.589,34.881l38.966,0l0,7.151l-21.252,0l0,17.753l21.601,0l0,7.151l-21.601,0l0,30.552l21.601,0l0,8.092l-39.13,0l0,-1l-0.076,0l0,-4.475l-0.014,0l-0.095,-65.224Z" style="fill:#fff;"/></g><path d="M292.078,34.766l12.374,0l0,0.02c10.175,0.103 19.825,7.37 22.575,17.281c3.8,13.691 -7.113,29.668 -22.436,29.911l-0.139,0.001l0,23.26l-12.374,0l0,-70.473Zm12.374,8.021l0,31.192c0.113,-0.002 0.226,-0.004 0.34,-0.007c6.011,-0.21 11.672,-4.158 13.941,-9.7c3.766,-9.2 -3.225,-21.322 -14.281,-21.485Z" style="fill:#fff;"/><path d="M366.543,34.408c15.365,0 27.839,15.869 27.839,35.416c0,19.546 -12.474,35.415 -27.839,35.415c-15.364,0 -27.838,-15.869 -27.838,-35.415c0,-19.547 12.474,-35.416 27.838,-35.416Zm0.394,11.914c9.308,0 16.865,10.713 16.865,23.909c0,13.195 -7.557,23.908 -16.865,23.908c-9.307,0 -16.864,-10.713 -16.864,-23.908c0,-13.196 7.557,-23.909 16.864,-23.909Z" style="fill:#fff;"/><path d="M456.896,105.549l-16.911,0l-0.014,0.031l-6.566,-0.203l0.002,-0.003c-6.774,-0.141 -13.596,-1.746 -18.537,-6.383c-4.326,-4.061 -7.046,-9.697 -7.79,-15.615l-0.156,-0.001l0.006,-1.554c-0.03,-0.463 -0.049,-0.928 -0.055,-1.392l-0.01,-4.312l0.089,0l0.171,-40.892c2.667,0.011 5.334,0.023 8,0.034l-0.193,46.219c0.67,7.989 6.913,15.604 15.226,15.747c0,0 4.211,0.08 4.211,0.08l-0.001,-0.004l5.617,0l0,-62.423l16.911,0l0,70.671Z" style="fill:#fff;"/><g><path d="M569.883,35.7l0,-0.001c0.123,0 0.245,-0.004 0.368,-0.003c15.756,0.151 30.511,12.152 33.787,27.824c4.208,20.129 -11.966,42.446 -34.154,42.375l-0.001,-0.001l-11.903,0l0,-70.194l11.903,0Zm6.001,63.655c9.981,-2.101 18.486,-9.951 21.554,-19.691c4.788,-15.202 -4.725,-33.739 -21.45,-37.371l-0.104,-0.022c0,19.028 0,38.056 0,57.084Z" style="fill:#fff;"/><path d="M569.994,36.221c15.705,0.151 30.423,12.138 33.676,27.608c4.198,19.971 -11.929,42.137 -34.045,42.066l0,-69.674c0.123,0 0.246,0 0.369,0Zm5.963,61.121c8.674,-2.685 17.369,-10.742 19.629,-19.565c3.338,-13.03 -4.391,-27.999 -17.748,-32.314l-2.326,-0.697c0,17.11 0.445,35.466 0.445,52.576Z" style="fill:#fff;fill-rule:nonzero;"/></g><path d="M631.436,105.526l-14.531,0l0,-70.759l14.531,0l0.006,-0.001c9.572,0.913 18.287,8.127 20.781,17.586c2.309,8.755 -1.284,18.338 -8.185,24.168c5.719,8.968 13.698,21.364 18.67,29.198l-9.8,-0.006l-15.791,-25.125c-1.791,0.667 -3.693,1.113 -5.681,1.298l0,23.641Zm0,-62.594l0,30.906c6.456,-0.914 12.102,-6.096 13.306,-12.595c1.53,-8.258 -4.622,-17.08 -13.306,-18.311Z" style="fill:#fff;"/><path d="M693.771,68.583c-7.044,-11.139 -13.962,-22.385 -21.034,-33.543c3.663,0.002 7.326,0.004 10.989,0.006l15.412,25.06c5.107,-8.075 10.202,-16.156 15.258,-24.259l0,0l0,-0.087l20.969,0l-2.976,4.733l-0.044,0l-40.879,65.058l0,0.079l-19.419,0l-1.647,0.024c7.732,-12.392 15.555,-24.73 23.371,-37.071Z" style="fill:#fff;"/><path d="M254.747,67.331c7.988,12.611 15.984,25.215 23.85,37.824l-1.308,-0.019l-19.832,0l0,-0.089l-12.898,-20.527l-12.374,20.877l-10.718,0.058l17.594,-29.684l-22.639,-36.03l-0.05,0l-2.987,-4.752l21.051,0l0,0.096l1.685,2.701c4.343,6.947 8.72,13.89 13.108,20.829l14.003,-23.626l10.717,-0.057l-19.202,32.399Z" style="fill:#fff;"/></g><g><g><path d="M72.714,98.304c0,-3.713 -3.014,-6.728 -6.727,-6.728l-25.183,0c-3.713,0 -6.728,3.015 -6.728,6.728c0,3.712 3.015,6.727 6.728,6.727l25.183,0c3.713,0 6.727,-3.015 6.727,-6.727Z" style="fill:#fff;"/><path d="M124.168,98.217c0,-3.713 -3.015,-6.727 -6.727,-6.727l-25.184,0c-3.713,0 -6.727,3.014 -6.727,6.727c0,3.713 3.014,6.728 6.727,6.728l25.184,0c3.712,0 6.727,-3.015 6.727,-6.728Z" style="fill:#fff;"/></g><path d="M107.034,73.185c0,-3.713 -3.014,-6.727 -6.727,-6.727l-42.37,0c-3.712,0 -6.727,3.014 -6.727,6.727c0,3.713 3.015,6.727 6.727,6.727l42.37,0c3.713,0 6.727,-3.014 6.727,-6.727Z" style="fill:#fff;"/><path d="M89.486,46.002c0,-5.72 -4.644,-10.364 -10.364,-10.364c-5.72,0 -10.363,4.644 -10.363,10.364l0,0.08c0,5.719 4.643,10.363 10.363,10.363c5.72,0 10.364,-4.644 10.364,-10.363l0,-0.08Z" style="fill:#fff;"/></g></svg>