<?xml version="1.0" encoding="UTF-8" standalone="no"?><!DOCTYPE svg PUBLIC "-//W3C//DTD SVG 1.1//EN" "http://www.w3.org/Graphics/SVG/1.1/DTD/svg11.dtd"><svg width="100%" height="100%" viewBox="0 0 128 128" version="1.1" xmlns="http://www.w3.org/2000/svg" xmlns:xlink="http://www.w3.org/1999/xlink" xml:space="preserve" xmlns:serif="http://www.serif.com/" style="fill-rule:evenodd;clip-rule:evenodd;stroke-linejoin:round;stroke-miterlimit:1.41421;"><rect id="lessonssm" x="0" y="0" width="128" height="128" style="fill:none;"/><path d="M41.461,82.302l-33.733,0c0,-9.267 7.558,-16.79 16.867,-16.79c9.308,0 16.866,7.523 16.866,16.79Z"/><path d="M80.954,37.826l-33.732,0c0,-9.266 7.557,-16.789 16.866,-16.789c9.309,0 16.866,7.522 16.866,16.789Z"/><path d="M120.272,82.302l-33.733,0c0,-9.267 7.558,-16.79 16.866,-16.79c9.309,0 16.866,7.523 16.867,16.79Z"/><path d="M80.954,122.37l-33.732,0c0,-9.267 7.557,-16.79 16.866,-16.79c9.309,0 16.866,7.523 16.866,16.79Z"/><ellipse cx="24.595" cy="57.057" rx="6.982" ry="6.95"/><ellipse cx="64.088" cy="12.581" rx="6.982" ry="6.95"/><ellipse cx="103.405" cy="57.057" rx="6.982" ry="6.95"/><ellipse cx="64.088" cy="97.125" rx="6.982" ry="6.95"/><path d="M66.504,44.336c-1.554,-0.183 -3.124,-0.183 -4.678,0l-0.535,5.289c-1.136,0.225 -2.241,0.582 -3.293,1.065l-3.556,-3.966c-1.365,0.761 -2.636,1.68 -3.785,2.737l2.69,4.592c-0.786,0.847 -1.469,1.783 -2.035,2.789l-5.219,-1.128c-0.655,1.414 -1.14,2.901 -1.445,4.429l4.888,2.141c-0.136,1.145 -0.136,2.302 0,3.447l-4.888,2.141c0.305,1.527 0.79,3.014 1.445,4.428l5.219,-1.128c0.566,1.006 1.249,1.943 2.035,2.789l-2.69,4.592c1.149,1.058 2.42,1.976 3.785,2.737l3.556,-3.966c1.052,0.483 2.157,0.841 3.293,1.066l0.535,5.289c1.554,0.183 3.124,0.183 4.678,0l0.535,-5.289c1.136,-0.225 2.242,-0.583 3.294,-1.066l3.556,3.966c1.365,-0.761 2.635,-1.679 3.784,-2.737l-2.69,-4.592c0.786,-0.846 1.47,-1.783 2.036,-2.789l5.218,1.128c0.655,-1.414 1.141,-2.901 1.446,-4.428l-4.888,-2.141c0.136,-1.145 0.136,-2.302 0,-3.447l4.888,-2.141c-0.305,-1.528 -0.791,-3.015 -1.446,-4.429l-5.218,1.128c-0.566,-1.006 -1.25,-1.942 -2.036,-2.789l2.69,-4.592c-1.149,-1.057 -2.419,-1.976 -3.784,-2.737l-3.556,3.966c-1.052,-0.483 -2.158,-0.84 -3.294,-1.065l-0.535,-5.289Zm-2.339,10.235c5.232,0 9.48,4.228 9.48,9.436c0,5.208 -4.248,9.437 -9.48,9.437c-5.232,0 -9.479,-4.229 -9.479,-9.437c0,-5.208 4.247,-9.436 9.479,-9.436Z"/><rect x="93.482" y="18.479" width="16.797" height="16.218" style="fill:#97ff2f;"/><circle cx="99.947" cy="101.029" r="7.91" style="fill:#ff3535;"/><path d="M30.715,90.558l-9.933,18.718l19.968,-0.062l-10.035,-18.656Z" style="fill:#90ffde;"/><path d="M18.537,15.258l-4.948,4.421l16.558,18.535l4.949,-4.42l-16.559,-18.536Z" style="fill:#0d00ff;"/><g><circle cx="25.548" cy="24.226" r="18.371" style="fill:#0f7aff;"/><text x="10.295px" y="21.493px" style="font-family:'Avenir-Black', 'Avenir', sans-serif;font-weight:800;font-size:6.731px;fill:#fff;">C<tspan x="15.074px 20.843px 27.365px 29.526px 35.18px " y="21.493px 21.493px 21.493px 21.493px 21.493px ">OMING</tspan></text><text x="13.952px" y="31.944px" style="font-family:'Avenir-Black', 'Avenir', sans-serif;font-weight:800;font-size:7.402px;fill:#fff;">S<tspan x="18.386px 24.73px 31.074px " y="31.944px 31.944px 31.944px ">OON</tspan></text></g></svg>