<?xml version="1.0" encoding="UTF-8" standalone="no"?><!DOCTYPE svg PUBLIC "-//W3C//DTD SVG 1.1//EN" "http://www.w3.org/Graphics/SVG/1.1/DTD/svg11.dtd"><svg width="100%" height="100%" viewBox="0 0 835 145" version="1.1" xmlns="http://www.w3.org/2000/svg" xmlns:xlink="http://www.w3.org/1999/xlink" xml:space="preserve" xmlns:serif="http://www.serif.com/" style="fill-rule:evenodd;clip-rule:evenodd;stroke-linejoin:round;stroke-miterlimit:1.41421;"><rect id="logo" x="0" y="0" width="834.207" height="144.829" style="fill:none;"/><path d="M70.714,98.304c0,-3.713 -3.014,-6.728 -6.727,-6.728l-25.183,0c-3.713,0 -6.728,3.015 -6.728,6.728c0,3.712 3.015,6.727 6.728,6.727l25.183,0c3.713,0 6.727,-3.015 6.727,-6.727Z" style="fill:#fff;"/><path d="M126.168,98.217c0,-3.713 -3.015,-6.727 -6.727,-6.727l-25.184,0c-3.713,0 -6.727,3.014 -6.727,6.727c0,3.713 3.014,6.728 6.727,6.728l25.184,0c3.712,0 6.727,-3.015 6.727,-6.728Z" style="fill:#fff;"/><path d="M107.034,68.151c0,-3.713 -3.014,-6.727 -6.727,-6.727l-42.37,0c-3.712,0 -6.727,3.014 -6.727,6.727c0,3.713 3.015,6.727 6.727,6.727l42.37,0c3.713,0 6.727,-3.014 6.727,-6.727Z" style="fill:#fff;"/><path d="M89.486,36.002c0,-5.72 -4.644,-10.364 -10.364,-10.364c-5.72,0 -10.363,4.644 -10.363,10.364l0,0.08c0,5.719 4.643,10.363 10.363,10.363c5.72,0 10.364,-4.644 10.364,-10.363l0,-0.08Z" style="fill:#fff;"/><text x="174.689px" y="103.347px" style="font-family:'AppleSymbols', 'Apple Symbols';font-size:129.041px;fill:#fff;">E<tspan x="235.814px 300.09px 361.909px 437.652px 507.094px 580.38px 652.973px 716.871px " y="103.347px 103.347px 103.347px 103.347px 103.347px 103.347px 103.347px 103.347px ">XPOUNDRY</tspan></text></svg>