<?xml version="1.0" encoding="UTF-8" standalone="no"?><!DOCTYPE svg PUBLIC "-//W3C//DTD SVG 1.1//EN" "http://www.w3.org/Graphics/SVG/1.1/DTD/svg11.dtd"><svg width="100%" height="100%" viewBox="0 0 1950 425" version="1.1" xmlns="http://www.w3.org/2000/svg" xmlns:xlink="http://www.w3.org/1999/xlink" xml:space="preserve" xmlns:serif="http://www.serif.com/" style="fill-rule:evenodd;clip-rule:evenodd;stroke-linejoin:round;stroke-miterlimit:1.5;"><rect id="header" x="0" y="0" width="1950" height="425" style="fill:none;"/><clipPath id="_clip1"><rect x="0" y="0" width="1950" height="425"/></clipPath><g clip-path="url(#_clip1)"><rect x="-3.054" y="-1.967" width="1964.88" height="504.165" style="fill:#83ffd5;"/><path d="M1796.26,-50.09l-99.054,171.573l-34.168,-64.455l98.713,-172.319l34.509,65.201Zm-118.38,107.362l19.811,37.37l83.715,-145.005l-20.105,-37.989l-83.421,145.624Z" style="fill:#9d46ff;"/><circle cx="673.743" cy="352.32" r="13.865" style="fill:#9d46ff;"/><circle cx="794.129" cy="12.169" r="13.865" style="fill:#9d46ff;"/><path d="M1330.82,148.434l0.387,0.004l0.389,0.006l0.392,0.009l0.386,0.011l0.388,0.013l0.387,0.016l0.385,0.018l0.388,0.021l0.386,0.024l0.384,0.025l0.384,0.028l0.385,0.031l0.383,0.033l0.382,0.035l0.381,0.037l0.381,0.04l0.382,0.043l0.378,0.044l0.379,0.047l0.38,0.05l0.379,0.052l0.375,0.054l0.376,0.056l0.377,0.059l0.374,0.061l0.375,0.063l0.373,0.065l0.372,0.068l0.375,0.071l0.371,0.072l0.366,0.074l0.372,0.077l0.369,0.08l0.368,0.081l0.368,0.084l0.363,0.085l0.366,0.088l0.366,0.091l0.365,0.093l0.361,0.094l0.362,0.097l0.362,0.099l0.359,0.101l0.361,0.103l0.356,0.105l0.359,0.109l0.355,0.109l0.357,0.112l0.356,0.115l0.352,0.115l0.35,0.118l0.353,0.12l0.353,0.123l0.349,0.125l0.351,0.127l0.347,0.129l0.345,0.13l0.346,0.132l0.347,0.136l0.343,0.137l0.339,0.137l0.342,0.141l0.343,0.144l0.338,0.144l0.339,0.148l0.34,0.15l0.333,0.149l0.336,0.153l0.335,0.156l0.33,0.155l0.333,0.159l0.333,0.162l0.329,0.163l0.326,0.163l0.328,0.167l0.326,0.168l0.324,0.17l0.328,0.174l0.322,0.174l0.319,0.175l0.32,0.177l0.317,0.179l0.32,0.182l0.316,0.184l0.318,0.186l0.312,0.186l0.311,0.188l0.316,0.194l0.309,0.191l0.307,0.193l0.309,0.197l0.305,0.197l0.306,0.2l0.305,0.202l0.302,0.203l0.302,0.205l0.301,0.208l0.298,0.208l0.294,0.208l0.297,0.213l0.297,0.215l0.293,0.215l0.293,0.218l0.289,0.217l0.289,0.22l0.287,0.222l0.286,0.224l0.288,0.227l0.284,0.228l0.282,0.228l0.281,0.23l0.277,0.231l0.28,0.235l0.277,0.236l0.273,0.235l0.276,0.241l0.274,0.241l0.267,0.239l0.271,0.244l0.268,0.246l0.265,0.245l0.265,0.248l0.265,0.251l0.264,0.254l0.258,0.25l0.258,0.253l0.258,0.256l0.258,0.259l0.255,0.26l0.251,0.259l0.251,0.262l0.249,0.263l0.249,0.266l0.247,0.267l0.244,0.266l0.244,0.27l0.241,0.271l0.239,0.27l0.243,0.279l0.235,0.273l0.234,0.275l0.235,0.279l0.232,0.28l0.231,0.281l0.228,0.282l0.228,0.285l0.225,0.284l0.224,0.287l0.222,0.287l0.221,0.29l0.219,0.292l0.217,0.291l0.215,0.293l0.213,0.294l0.212,0.296l0.21,0.297l0.21,0.301l0.206,0.298l0.204,0.301l0.205,0.305l0.2,0.302l0.199,0.304l0.199,0.308l0.197,0.31l0.194,0.307l0.193,0.312l0.191,0.313l0.188,0.31l0.185,0.312l0.186,0.316l0.186,0.321l0.179,0.314l0.181,0.32l0.177,0.32l0.174,0.317l0.177,0.328l0.172,0.323l0.17,0.324l0.17,0.331l0.164,0.321l0.164,0.328l0.165,0.334l0.159,0.329l0.159,0.33l0.156,0.332l0.156,0.336l0.153,0.337l0.15,0.334l0.148,0.336l0.149,0.341l0.145,0.341l0.142,0.338l0.141,0.343l0.139,0.343l0.136,0.34l0.135,0.346l0.133,0.347l0.13,0.343l0.129,0.348l0.128,0.354l0.124,0.35l0.123,0.35l0.12,0.352l0.116,0.347l0.118,0.358l0.114,0.354l0.112,0.355l0.11,0.36l0.107,0.356l0.105,0.356l0.103,0.358l0.102,0.363l0.1,0.364l0.096,0.359l0.094,0.361l0.093,0.365l0.091,0.367l0.087,0.362l0.087,0.368l0.083,0.369l0.081,0.364l0.079,0.369l0.078,0.371l0.074,0.37l0.073,0.372l0.07,0.372l0.068,0.372l0.065,0.374l0.063,0.374l0.061,0.374l0.059,0.374l0.056,0.376l0.055,0.381l0.052,0.381l0.048,0.372l0.047,0.378l0.045,0.382l0.043,0.384l0.04,0.379l0.037,0.379l0.035,0.384l0.034,0.385l0.03,0.386l0.028,0.381l0.025,0.381l0.024,0.387l0.021,0.392l0.018,0.382l0.016,0.388l0.013,0.388l0.012,0.384l0.008,0.394l0.006,0.389l0.004,0.389l0.001,0.39l-0.001,0.39l-0.004,0.39l-0.006,0.389l-0.008,0.393l-0.012,0.384l-0.013,0.388l-0.016,0.388l-0.018,0.382l-0.021,0.392l-0.024,0.387l-0.025,0.382l-0.028,0.38l-0.03,0.386l-0.034,0.385l-0.035,0.385l-0.037,0.379l-0.04,0.379l-0.043,0.383l-0.045,0.383l-0.047,0.377l-0.048,0.372l-0.052,0.381l-0.055,0.381l-0.056,0.376l-0.059,0.374l-0.061,0.375l-0.063,0.374l-0.065,0.373l-0.068,0.373l-0.07,0.372l-0.073,0.371l-0.074,0.371l-0.078,0.371l-0.079,0.369l-0.081,0.364l-0.083,0.369l-0.087,0.367l-0.087,0.363l-0.091,0.366l-0.093,0.366l-0.094,0.36l-0.096,0.36l-0.1,0.364l-0.101,0.362l-0.104,0.358l-0.105,0.357l-0.107,0.355l-0.111,0.361l-0.111,0.355l-0.114,0.353l-0.117,0.358l-0.117,0.347l-0.12,0.352l-0.123,0.351l-0.124,0.349l-0.128,0.354l-0.13,0.349l-0.129,0.342l-0.132,0.346l-0.136,0.347l-0.136,0.341l-0.139,0.343l-0.141,0.343l-0.142,0.338l-0.146,0.341l-0.147,0.34l-0.148,0.336l-0.151,0.334l-0.153,0.337l-0.156,0.336l-0.156,0.332l-0.159,0.331l-0.16,0.33l-0.164,0.332l-0.164,0.327l-0.164,0.323l-0.17,0.33l-0.17,0.325l-0.172,0.323l-0.177,0.327l-0.174,0.317l-0.177,0.32l-0.181,0.32l-0.179,0.315l-0.186,0.32l-0.186,0.317l-0.186,0.312l-0.187,0.309l-0.191,0.313l-0.194,0.313l-0.192,0.306l-0.197,0.309l-0.2,0.309l-0.199,0.304l-0.201,0.303l-0.204,0.304l-0.204,0.3l-0.206,0.299l-0.21,0.302l-0.21,0.297l-0.212,0.295l-0.213,0.294l-0.215,0.293l-0.218,0.293l-0.218,0.29l-0.22,0.289l-0.223,0.289l-0.224,0.286l-0.226,0.286l-0.228,0.285l-0.226,0.279l-0.231,0.282l-0.233,0.28l-0.235,0.279l-0.235,0.276l-0.235,0.273l-0.241,0.277l-0.24,0.272l-0.241,0.27l-0.244,0.27l-0.244,0.267l-0.246,0.266l-0.25,0.267l-0.249,0.263l-0.251,0.261l-0.251,0.259l-0.255,0.26l-0.258,0.259l-0.258,0.256l-0.259,0.255l-0.258,0.25l-0.261,0.251l-0.266,0.252l-0.266,0.249l-0.265,0.245l-0.268,0.246l-0.271,0.244l-0.267,0.239l-0.274,0.241l-0.276,0.24l-0.273,0.236l-0.277,0.236l-0.28,0.234l-0.277,0.231l-0.281,0.23l-0.282,0.229l-0.286,0.229l-0.286,0.226l-0.284,0.222l-0.289,0.223l-0.289,0.22l-0.289,0.218l-0.293,0.218l-0.293,0.215l-0.297,0.215l-0.297,0.212l-0.294,0.208l-0.298,0.209l-0.301,0.207l-0.302,0.206l-0.302,0.202l-0.305,0.202l-0.306,0.201l-0.305,0.197l-0.309,0.196l-0.307,0.193l-0.311,0.193l-0.314,0.192l-0.311,0.188l-0.312,0.186l-0.318,0.187l-0.316,0.183l-0.318,0.182l-0.319,0.179l-0.32,0.178l-0.321,0.176l-0.32,0.172l-0.326,0.174l-0.326,0.171l-0.328,0.169l-0.326,0.166l-0.324,0.162l-0.331,0.163l-0.333,0.162l-0.333,0.16l-0.332,0.156l-0.333,0.154l-0.334,0.152l-0.337,0.152l-0.338,0.149l-0.337,0.146l-0.34,0.145l-0.343,0.144l-0.342,0.141l-0.339,0.138l-0.343,0.136l-0.347,0.136l-0.346,0.133l-0.345,0.13l-0.347,0.129l-0.353,0.128l-0.35,0.124l-0.348,0.121l-0.353,0.121l-0.352,0.118l-0.354,0.116l-0.354,0.114l-0.354,0.112l-0.358,0.11l-0.359,0.108l-0.359,0.106l-0.358,0.103l-0.359,0.101l-0.362,0.099l-0.36,0.096l-0.365,0.096l-0.363,0.092l-0.363,0.09l-0.369,0.088l-0.365,0.086l-0.366,0.083l-0.368,0.082l-0.369,0.079l-0.37,0.077l-0.371,0.075l-0.37,0.072l-0.37,0.07l-0.373,0.068l-0.375,0.066l-0.375,0.063l-0.376,0.061l-0.375,0.059l-0.376,0.056l-0.375,0.054l-0.379,0.052l-0.38,0.049l-0.377,0.047l-0.38,0.045l-0.382,0.042l-0.381,0.04l-0.381,0.038l-0.382,0.035l-0.383,0.033l-0.385,0.03l-0.384,0.028l-0.384,0.026l-0.386,0.023l-0.388,0.021l-0.385,0.018l-0.387,0.016l-0.388,0.014l-0.386,0.011l-0.392,0.009l-0.389,0.006l-0.389,0.003l-0.39,0.002l-0.39,-0.002l-0.39,-0.003l-0.389,-0.006l-0.391,-0.009l-0.386,-0.011l-0.388,-0.014l-0.388,-0.016l-0.385,-0.018l-0.387,-0.021l-0.387,-0.023l-0.384,-0.026l-0.383,-0.028l-0.385,-0.03l-0.383,-0.033l-0.382,-0.035l-0.382,-0.038l-0.381,-0.04l-0.381,-0.042l-0.381,-0.045l-0.377,-0.047l-0.379,-0.049l-0.379,-0.052l-0.375,-0.054l-0.377,-0.056l-0.374,-0.059l-0.376,-0.061l-0.375,-0.063l-0.375,-0.066l-0.373,-0.068l-0.37,-0.07l-0.37,-0.072l-0.371,-0.075l-0.37,-0.077l-0.369,-0.079l-0.368,-0.082l-0.366,-0.083l-0.366,-0.086l-0.368,-0.088l-0.363,-0.09l-0.363,-0.092l-0.365,-0.096l-0.361,-0.096l-0.361,-0.099l-0.36,-0.101l-0.358,-0.103l-0.359,-0.106l-0.359,-0.108l-0.357,-0.11l-0.355,-0.112l-0.354,-0.114l-0.353,-0.116l-0.353,-0.118l-0.353,-0.121l-0.348,-0.121l-0.349,-0.124l-0.353,-0.128l-0.348,-0.129l-0.344,-0.13l-0.346,-0.133l-0.347,-0.136l-0.343,-0.136l-0.34,-0.138l-0.342,-0.141l-0.342,-0.144l-0.341,-0.145l-0.336,-0.146l-0.338,-0.149l-0.337,-0.152l-0.334,-0.152l-0.333,-0.154l-0.332,-0.156l-0.333,-0.16l-0.334,-0.162l-0.33,-0.163l-0.324,-0.162l-0.327,-0.166l-0.327,-0.169l-0.327,-0.171l-0.325,-0.174l-0.32,-0.172l-0.321,-0.176l-0.32,-0.178l-0.319,-0.179l-0.318,-0.182l-0.316,-0.183l-0.318,-0.187l-0.312,-0.186l-0.311,-0.188l-0.315,-0.192l-0.31,-0.193l-0.308,-0.193l-0.308,-0.196l-0.305,-0.197l-0.306,-0.201l-0.305,-0.202l-0.302,-0.202l-0.302,-0.206l-0.301,-0.207l-0.298,-0.209l-0.294,-0.208l-0.298,-0.212l-0.296,-0.215l-0.293,-0.215l-0.293,-0.218l-0.289,-0.218l-0.289,-0.22l-0.289,-0.223l-0.285,-0.222l-0.286,-0.226l-0.283,-0.227l-0.285,-0.231l-0.283,-0.232l-0.275,-0.229l-0.279,-0.234l-0.277,-0.236l-0.274,-0.236l-0.276,-0.24l-0.273,-0.241l-0.268,-0.239l-0.27,-0.244l-0.269,-0.246l-0.265,-0.245l-0.266,-0.249l-0.265,-0.252l-0.261,-0.251l-0.258,-0.25l-0.26,-0.255l-0.257,-0.256l-0.258,-0.259l-0.255,-0.26l-0.249,-0.256l-0.253,-0.264l-0.252,-0.266l-0.248,-0.264l-0.246,-0.266l-0.243,-0.267l-0.245,-0.27l-0.241,-0.27l-0.24,-0.272l-0.241,-0.277l-0.235,-0.273l-0.235,-0.276l-0.234,-0.279l-0.233,-0.28l-0.231,-0.282l-0.227,-0.279l-0.228,-0.285l-0.226,-0.286l-0.223,-0.286l-0.223,-0.289l-0.22,-0.289l-0.219,-0.29l-0.218,-0.293l-0.214,-0.293l-0.214,-0.294l-0.211,-0.295l-0.21,-0.297l-0.211,-0.302l-0.206,-0.299l-0.203,-0.3l-0.205,-0.304l-0.2,-0.303l-0.2,-0.304l-0.199,-0.309l-0.197,-0.309l-0.192,-0.306l-0.192,-0.309l-0.194,-0.317l-0.186,-0.309l-0.187,-0.312l-0.188,-0.321l-0.183,-0.316l-0.18,-0.315l-0.18,-0.32l-0.178,-0.32l-0.173,-0.317l-0.177,-0.327l-0.172,-0.323l-0.17,-0.325l-0.169,-0.326l-0.166,-0.327l-0.165,-0.331l-0.163,-0.328l-0.16,-0.33l-0.158,-0.331l-0.156,-0.332l-0.156,-0.336l-0.154,-0.337l-0.15,-0.334l-0.148,-0.336l-0.148,-0.34l-0.145,-0.341l-0.142,-0.338l-0.142,-0.343l-0.139,-0.343l-0.135,-0.341l-0.136,-0.347l-0.133,-0.346l-0.129,-0.342l-0.129,-0.349l-0.129,-0.354l-0.124,-0.349l-0.122,-0.351l-0.12,-0.352l-0.117,-0.347l-0.118,-0.358l-0.113,-0.353l-0.112,-0.355l-0.111,-0.361l-0.107,-0.355l-0.105,-0.357l-0.103,-0.358l-0.102,-0.362l-0.099,-0.364l-0.097,-0.36l-0.094,-0.36l-0.093,-0.366l-0.09,-0.366l-0.088,-0.363l-0.086,-0.367l-0.084,-0.369l-0.08,-0.364l-0.08,-0.369l-0.077,-0.371l-0.075,-0.371l-0.072,-0.371l-0.07,-0.372l-0.068,-0.373l-0.065,-0.373l-0.064,-0.374l-0.061,-0.375l-0.058,-0.374l-0.057,-0.376l-0.054,-0.381l-0.052,-0.376l-0.049,-0.377l-0.047,-0.382l-0.045,-0.378l-0.042,-0.383l-0.04,-0.379l-0.037,-0.379l-0.036,-0.385l-0.033,-0.385l-0.03,-0.386l-0.028,-0.38l-0.026,-0.382l-0.023,-0.387l-0.021,-0.392l-0.018,-0.382l-0.016,-0.388l-0.014,-0.388l-0.011,-0.384l-0.009,-0.393l-0.006,-0.389l-0.003,-0.39l-0.002,-0.39l0.002,-0.39l0.003,-0.389l0.006,-0.389l0.009,-0.394l0.011,-0.384l0.014,-0.388l0.016,-0.388l0.018,-0.382l0.021,-0.392l0.023,-0.387l0.026,-0.381l0.028,-0.381l0.03,-0.386l0.033,-0.385l0.036,-0.384l0.037,-0.379l0.04,-0.379l0.042,-0.384l0.045,-0.378l0.047,-0.382l0.049,-0.376l0.052,-0.377l0.055,-0.381l0.056,-0.376l0.058,-0.374l0.061,-0.374l0.064,-0.374l0.065,-0.374l0.068,-0.372l0.07,-0.372l0.072,-0.372l0.075,-0.37l0.077,-0.371l0.08,-0.369l0.08,-0.364l0.084,-0.369l0.086,-0.368l0.088,-0.362l0.09,-0.367l0.093,-0.365l0.094,-0.361l0.096,-0.359l0.1,-0.364l0.102,-0.363l0.103,-0.358l0.105,-0.356l0.107,-0.356l0.111,-0.36l0.112,-0.355l0.114,-0.354l0.117,-0.358l0.117,-0.347l0.12,-0.352l0.122,-0.35l0.124,-0.35l0.129,-0.354l0.129,-0.348l0.129,-0.343l0.133,-0.347l0.136,-0.346l0.135,-0.34l0.139,-0.343l0.142,-0.343l0.142,-0.338l0.145,-0.341l0.148,-0.341l0.148,-0.336l0.15,-0.334l0.154,-0.337l0.156,-0.336l0.156,-0.332l0.158,-0.33l0.16,-0.329l0.163,-0.33l0.166,-0.332l0.165,-0.325l0.169,-0.327l0.17,-0.324l0.172,-0.323l0.177,-0.328l0.173,-0.317l0.178,-0.32l0.18,-0.32l0.18,-0.314l0.183,-0.317l0.188,-0.32l0.186,-0.312l0.187,-0.31l0.194,-0.317l0.191,-0.308l0.193,-0.307l0.197,-0.31l0.199,-0.308l0.2,-0.304l0.199,-0.302l0.206,-0.305l0.204,-0.301l0.205,-0.298l0.211,-0.301l0.21,-0.297l0.211,-0.296l0.214,-0.294l0.214,-0.293l0.217,-0.291l0.22,-0.292l0.221,-0.29l0.222,-0.287l0.223,-0.287l0.225,-0.284l0.228,-0.285l0.229,-0.282l0.231,-0.281l0.232,-0.28l0.234,-0.279l0.234,-0.275l0.235,-0.273l0.243,-0.279l0.239,-0.27l0.241,-0.271l0.245,-0.27l0.243,-0.266l0.248,-0.267l0.246,-0.264l0.252,-0.265l0.253,-0.265l0.249,-0.256l0.255,-0.26l0.258,-0.259l0.257,-0.256l0.259,-0.253l0.257,-0.25l0.264,-0.254l0.266,-0.251l0.264,-0.248l0.265,-0.245l0.269,-0.246l0.27,-0.244l0.268,-0.239l0.273,-0.241l0.276,-0.241l0.274,-0.235l0.277,-0.236l0.279,-0.235l0.275,-0.228l0.283,-0.233l0.285,-0.231l0.282,-0.225l0.287,-0.227l0.287,-0.224l0.287,-0.222l0.289,-0.22l0.289,-0.217l0.293,-0.218l0.293,-0.215l0.296,-0.215l0.298,-0.213l0.294,-0.208l0.298,-0.208l0.301,-0.208l0.302,-0.205l0.302,-0.203l0.305,-0.202l0.306,-0.2l0.305,-0.197l0.308,-0.197l0.308,-0.193l0.308,-0.191l0.317,-0.194l0.311,-0.188l0.312,-0.186l0.318,-0.186l0.316,-0.184l0.32,-0.182l0.317,-0.179l0.32,-0.177l0.319,-0.175l0.322,-0.174l0.327,-0.174l0.325,-0.17l0.325,-0.168l0.329,-0.167l0.326,-0.163l0.328,-0.163l0.334,-0.162l0.333,-0.159l0.33,-0.155l0.335,-0.156l0.336,-0.153l0.333,-0.149l0.34,-0.15l0.338,-0.148l0.339,-0.144l0.342,-0.144l0.342,-0.141l0.34,-0.137l0.343,-0.137l0.347,-0.136l0.346,-0.132l0.344,-0.13l0.348,-0.129l0.35,-0.127l0.35,-0.125l0.353,-0.123l0.353,-0.12l0.35,-0.118l0.351,-0.115l0.356,-0.115l0.357,-0.112l0.355,-0.109l0.359,-0.109l0.357,-0.105l0.36,-0.103l0.36,-0.101l0.361,-0.099l0.363,-0.097l0.361,-0.094l0.365,-0.093l0.365,-0.091l0.366,-0.088l0.363,-0.085l0.369,-0.084l0.368,-0.081l0.369,-0.08l0.372,-0.077l0.366,-0.074l0.37,-0.072l0.375,-0.071l0.373,-0.068l0.373,-0.065l0.375,-0.063l0.373,-0.061l0.377,-0.059l0.377,-0.056l0.375,-0.054l0.379,-0.052l0.379,-0.05l0.38,-0.047l0.378,-0.044l0.381,-0.043l0.381,-0.04l0.382,-0.037l0.382,-0.035l0.383,-0.033l0.385,-0.031l0.383,-0.028l0.384,-0.025l0.387,-0.024l0.387,-0.021l0.385,-0.018l0.388,-0.016l0.388,-0.013l0.386,-0.011l0.391,-0.009l0.389,-0.006l0.388,-0.004l0.392,-0.001l0.392,0.001Zm-0.719,10l-0.326,0.003l-0.326,0.005l-0.326,0.007l-0.325,0.01l-0.324,0.011l-0.324,0.013l-0.323,0.016l-0.323,0.017l-0.322,0.02l-0.322,0.021l-0.321,0.023l-0.321,0.026l-0.32,0.027l-0.319,0.03l-0.319,0.031l-0.319,0.034l-0.317,0.035l-0.317,0.037l-0.317,0.039l-0.316,0.042l-0.315,0.043l-0.315,0.045l-0.314,0.047l-0.314,0.049l-0.312,0.051l-0.313,0.053l-0.311,0.054l-0.311,0.057l-0.31,0.058l-0.31,0.061l-0.309,0.062l-0.308,0.064l-0.307,0.066l-0.307,0.068l-0.306,0.07l-0.306,0.071l-0.305,0.074l-0.304,0.075l-0.303,0.077l-0.302,0.079l-0.302,0.081l-0.301,0.082l-0.3,0.085l-0.3,0.086l-0.299,0.088l-0.298,0.09l-0.297,0.091l-0.297,0.094l-0.295,0.095l-0.295,0.096l-0.294,0.099l-0.294,0.1l-0.292,0.102l-0.292,0.104l-0.291,0.106l-0.29,0.107l-0.289,0.109l-0.288,0.111l-0.288,0.112l-0.286,0.114l-0.286,0.116l-0.285,0.118l-0.284,0.119l-0.283,0.121l-0.282,0.122l-0.282,0.125l-0.28,0.125l-0.28,0.128l-0.278,0.129l-0.278,0.131l-0.277,0.132l-0.276,0.134l-0.275,0.136l-0.274,0.137l-0.273,0.139l-0.272,0.141l-0.271,0.142l-0.27,0.144l-0.27,0.145l-0.268,0.147l-0.267,0.148l-0.266,0.15l-0.266,0.152l-0.264,0.153l-0.263,0.154l-0.262,0.157l-0.262,0.157l-0.26,0.16l-0.259,0.16l-0.258,0.163l-0.257,0.163l-0.256,0.166l-0.255,0.166l-0.254,0.169l-0.253,0.169l-0.251,0.172l-0.251,0.172l-0.25,0.174l-0.248,0.176l-0.247,0.177l-0.247,0.179l-0.245,0.18l-0.244,0.181l-0.243,0.183l-0.241,0.184l-0.241,0.186l-0.239,0.187l-0.239,0.188l-0.237,0.19l-0.236,0.191l-0.235,0.193l-0.233,0.194l-0.233,0.195l-0.231,0.197l-0.23,0.198l-0.229,0.2l-0.228,0.201l-0.226,0.202l-0.225,0.203l-0.224,0.205l-0.223,0.206l-0.221,0.208l-0.221,0.208l-0.219,0.21l-0.217,0.212l-0.217,0.212l-0.215,0.214l-0.214,0.216l-0.213,0.216l-0.211,0.218l-0.21,0.219l-0.209,0.22l-0.207,0.221l-0.206,0.223l-0.205,0.224l-0.204,0.225l-0.202,0.227l-0.201,0.227l-0.199,0.229l-0.198,0.23l-0.197,0.232l-0.195,0.232l-0.194,0.234l-0.193,0.234l-0.191,0.236l-0.19,0.238l-0.189,0.238l-0.187,0.239l-0.185,0.241l-0.185,0.242l-0.182,0.243l-0.182,0.244l-0.18,0.245l-0.178,0.246l-0.177,0.247l-0.176,0.249l-0.174,0.249l-0.173,0.251l-0.171,0.252l-0.17,0.252l-0.168,0.254l-0.167,0.255l-0.165,0.256l-0.164,0.257l-0.162,0.258l-0.161,0.26l-0.159,0.26l-0.158,0.261l-0.156,0.262l-0.155,0.264l-0.153,0.264l-0.151,0.265l-0.15,0.266l-0.149,0.268l-0.147,0.268l-0.145,0.269l-0.143,0.27l-0.143,0.271l-0.14,0.272l-0.139,0.274l-0.137,0.274l-0.136,0.275l-0.134,0.275l-0.132,0.277l-0.131,0.278l-0.129,0.279l-0.128,0.279l-0.126,0.281l-0.124,0.281l-0.123,0.282l-0.12,0.283l-0.12,0.285l-0.117,0.284l-0.116,0.286l-0.114,0.287l-0.113,0.287l-0.11,0.289l-0.109,0.289l-0.108,0.29l-0.105,0.291l-0.104,0.291l-0.102,0.293l-0.1,0.293l-0.099,0.294l-0.097,0.295l-0.095,0.296l-0.093,0.296l-0.092,0.298l-0.089,0.298l-0.088,0.298l-0.087,0.3l-0.084,0.3l-0.082,0.301l-0.081,0.302l-0.079,0.303l-0.077,0.303l-0.076,0.304l-0.073,0.305l-0.072,0.305l-0.069,0.306l-0.068,0.307l-0.066,0.307l-0.064,0.309l-0.063,0.309l-0.06,0.309l-0.058,0.31l-0.057,0.311l-0.055,0.312l-0.053,0.312l-0.05,0.313l-0.049,0.313l-0.047,0.314l-0.046,0.315l-0.043,0.315l-0.041,0.316l-0.039,0.317l-0.038,0.317l-0.035,0.318l-0.033,0.318l-0.032,0.319l-0.029,0.32l-0.028,0.32l-0.025,0.32l-0.023,0.321l-0.022,0.322l-0.019,0.322l-0.018,0.323l-0.015,0.324l-0.013,0.323l-0.012,0.325l-0.009,0.325l-0.007,0.325l-0.005,0.326l-0.004,0.326l-0.001,0.327l0.001,0.327l0.004,0.326l0.005,0.326l0.007,0.326l0.009,0.325l0.012,0.324l0.013,0.324l0.015,0.323l0.018,0.323l0.019,0.322l0.022,0.322l0.023,0.321l0.025,0.321l0.028,0.32l0.029,0.319l0.032,0.319l0.033,0.319l0.035,0.317l0.038,0.318l0.039,0.316l0.041,0.316l0.043,0.315l0.046,0.315l0.047,0.314l0.049,0.314l0.05,0.312l0.053,0.313l0.055,0.311l0.057,0.311l0.058,0.31l0.06,0.31l0.063,0.309l0.064,0.308l0.066,0.307l0.068,0.307l0.069,0.306l0.072,0.306l0.073,0.305l0.076,0.304l0.077,0.303l0.079,0.302l0.081,0.302l0.082,0.301l0.084,0.301l0.087,0.299l0.088,0.299l0.089,0.298l0.092,0.297l0.093,0.297l0.095,0.295l0.097,0.295l0.099,0.294l0.1,0.294l0.102,0.292l0.104,0.292l0.105,0.291l0.108,0.29l0.109,0.289l0.11,0.288l0.113,0.288l0.114,0.286l0.116,0.286l0.117,0.285l0.12,0.284l0.12,0.283l0.123,0.282l0.124,0.282l0.126,0.28l0.128,0.28l0.129,0.278l0.131,0.278l0.132,0.277l0.134,0.276l0.136,0.275l0.137,0.274l0.139,0.273l0.14,0.272l0.143,0.271l0.143,0.27l0.145,0.27l0.147,0.268l0.149,0.267l0.15,0.266l0.151,0.266l0.153,0.264l0.155,0.263l0.156,0.262l0.158,0.262l0.159,0.26l0.161,0.259l0.162,0.258l0.164,0.257l0.165,0.256l0.167,0.255l0.168,0.254l0.17,0.253l0.171,0.251l0.173,0.251l0.174,0.25l0.176,0.248l0.177,0.247l0.178,0.247l0.18,0.245l0.182,0.244l0.182,0.243l0.185,0.241l0.185,0.241l0.187,0.24l0.189,0.238l0.19,0.237l0.191,0.236l0.193,0.235l0.194,0.233l0.195,0.233l0.197,0.231l0.198,0.23l0.199,0.229l0.201,0.228l0.202,0.226l0.204,0.225l0.205,0.224l0.206,0.223l0.207,0.221l0.209,0.221l0.21,0.219l0.211,0.217l0.213,0.217l0.214,0.215l0.215,0.214l0.217,0.213l0.217,0.211l0.219,0.21l0.221,0.209l0.221,0.207l0.223,0.206l0.224,0.205l0.225,0.204l0.226,0.202l0.228,0.201l0.229,0.199l0.23,0.198l0.231,0.197l0.233,0.195l0.233,0.194l0.235,0.193l0.236,0.191l0.237,0.19l0.239,0.189l0.239,0.187l0.241,0.185l0.241,0.185l0.243,0.182l0.244,0.182l0.245,0.18l0.247,0.178l0.247,0.177l0.248,0.176l0.25,0.174l0.251,0.173l0.251,0.171l0.253,0.17l0.254,0.168l0.255,0.167l0.256,0.165l0.257,0.164l0.258,0.162l0.259,0.161l0.26,0.159l0.262,0.158l0.262,0.156l0.263,0.155l0.264,0.153l0.266,0.151l0.266,0.15l0.267,0.149l0.268,0.147l0.27,0.145l0.27,0.144l0.271,0.142l0.272,0.14l0.273,0.139l0.274,0.137l0.275,0.136l0.276,0.134l0.277,0.132l0.278,0.131l0.278,0.129l0.28,0.128l0.28,0.126l0.282,0.124l0.282,0.123l0.283,0.12l0.284,0.12l0.285,0.117l0.286,0.116l0.286,0.114l0.288,0.113l0.288,0.11l0.289,0.109l0.29,0.108l0.291,0.105l0.292,0.104l0.292,0.102l0.294,0.1l0.294,0.099l0.295,0.097l0.295,0.095l0.297,0.093l0.297,0.092l0.298,0.089l0.299,0.088l0.3,0.087l0.3,0.084l0.301,0.083l0.302,0.08l0.302,0.079l0.303,0.077l0.304,0.076l0.305,0.073l0.306,0.072l0.306,0.069l0.307,0.068l0.307,0.066l0.308,0.064l0.309,0.063l0.31,0.06l0.31,0.058l0.311,0.057l0.311,0.055l0.313,0.053l0.312,0.05l0.314,0.049l0.314,0.047l0.315,0.046l0.315,0.043l0.316,0.041l0.317,0.039l0.317,0.038l0.317,0.035l0.319,0.033l0.319,0.032l0.319,0.029l0.32,0.028l0.321,0.025l0.321,0.023l0.322,0.022l0.322,0.019l0.323,0.018l0.323,0.015l0.324,0.013l0.324,0.012l0.325,0.009l0.326,0.007l0.326,0.005l0.326,0.004l0.327,0.001l0.327,-0.001l0.326,-0.004l0.326,-0.005l0.325,-0.007l0.325,-0.009l0.325,-0.012l0.323,-0.013l0.324,-0.015l0.323,-0.018l0.322,-0.019l0.322,-0.022l0.321,-0.023l0.32,-0.025l0.32,-0.028l0.32,-0.029l0.319,-0.032l0.318,-0.033l0.318,-0.035l0.317,-0.038l0.317,-0.039l0.316,-0.041l0.315,-0.043l0.315,-0.046l0.314,-0.047l0.313,-0.049l0.313,-0.05l0.312,-0.053l0.312,-0.055l0.311,-0.057l0.31,-0.058l0.309,-0.06l0.309,-0.063l0.309,-0.064l0.307,-0.066l0.307,-0.068l0.306,-0.069l0.305,-0.072l0.305,-0.073l0.304,-0.076l0.303,-0.077l0.303,-0.079l0.302,-0.08l0.301,-0.083l0.3,-0.084l0.3,-0.087l0.298,-0.088l0.298,-0.089l0.298,-0.092l0.296,-0.093l0.296,-0.095l0.295,-0.097l0.294,-0.099l0.293,-0.1l0.293,-0.102l0.291,-0.104l0.291,-0.105l0.29,-0.108l0.289,-0.109l0.289,-0.11l0.287,-0.113l0.287,-0.114l0.286,-0.116l0.285,-0.117l0.284,-0.12l0.283,-0.12l0.282,-0.123l0.281,-0.124l0.281,-0.126l0.279,-0.128l0.279,-0.129l0.278,-0.131l0.277,-0.132l0.276,-0.134l0.274,-0.136l0.274,-0.137l0.274,-0.139l0.272,-0.14l0.271,-0.142l0.27,-0.144l0.269,-0.145l0.268,-0.147l0.268,-0.149l0.266,-0.15l0.265,-0.151l0.265,-0.153l0.263,-0.155l0.262,-0.156l0.261,-0.158l0.26,-0.159l0.26,-0.161l0.258,-0.162l0.257,-0.164l0.256,-0.165l0.255,-0.167l0.254,-0.168l0.252,-0.17l0.252,-0.171l0.251,-0.173l0.249,-0.174l0.249,-0.176l0.247,-0.177l0.246,-0.178l0.245,-0.18l0.244,-0.182l0.243,-0.182l0.242,-0.185l0.241,-0.185l0.239,-0.187l0.238,-0.189l0.238,-0.19l0.236,-0.191l0.234,-0.193l0.234,-0.194l0.232,-0.195l0.232,-0.197l0.23,-0.198l0.229,-0.199l0.227,-0.201l0.227,-0.202l0.225,-0.204l0.224,-0.205l0.223,-0.206l0.221,-0.207l0.22,-0.209l0.219,-0.21l0.218,-0.211l0.217,-0.213l0.215,-0.214l0.214,-0.215l0.212,-0.217l0.212,-0.217l0.21,-0.219l0.208,-0.221l0.208,-0.221l0.206,-0.223l0.205,-0.224l0.203,-0.225l0.202,-0.226l0.201,-0.228l0.2,-0.229l0.198,-0.23l0.197,-0.231l0.195,-0.233l0.194,-0.233l0.193,-0.235l0.191,-0.236l0.19,-0.237l0.188,-0.238l0.187,-0.24l0.186,-0.241l0.184,-0.241l0.183,-0.243l0.181,-0.244l0.18,-0.245l0.179,-0.247l0.177,-0.247l0.176,-0.248l0.174,-0.25l0.172,-0.251l0.172,-0.251l0.169,-0.253l0.169,-0.254l0.166,-0.255l0.166,-0.256l0.163,-0.257l0.163,-0.258l0.161,-0.259l0.159,-0.26l0.157,-0.262l0.157,-0.262l0.154,-0.263l0.153,-0.264l0.152,-0.266l0.15,-0.266l0.148,-0.267l0.147,-0.268l0.145,-0.27l0.144,-0.27l0.142,-0.271l0.141,-0.272l0.139,-0.273l0.137,-0.274l0.136,-0.275l0.134,-0.276l0.132,-0.277l0.131,-0.278l0.129,-0.278l0.128,-0.28l0.125,-0.28l0.125,-0.282l0.122,-0.282l0.121,-0.283l0.119,-0.284l0.118,-0.285l0.116,-0.286l0.114,-0.286l0.112,-0.288l0.111,-0.288l0.109,-0.289l0.107,-0.29l0.106,-0.291l0.104,-0.292l0.102,-0.292l0.1,-0.294l0.099,-0.294l0.096,-0.295l0.095,-0.295l0.094,-0.297l0.091,-0.297l0.09,-0.298l0.088,-0.299l0.086,-0.299l0.085,-0.301l0.082,-0.301l0.081,-0.302l0.079,-0.302l0.077,-0.303l0.075,-0.304l0.074,-0.305l0.071,-0.306l0.07,-0.306l0.068,-0.307l0.066,-0.307l0.064,-0.308l0.062,-0.309l0.061,-0.31l0.058,-0.31l0.057,-0.311l0.054,-0.311l0.053,-0.313l0.051,-0.312l0.049,-0.314l0.047,-0.314l0.045,-0.315l0.043,-0.315l0.042,-0.316l0.039,-0.316l0.037,-0.318l0.035,-0.317l0.034,-0.319l0.031,-0.319l0.03,-0.319l0.027,-0.32l0.026,-0.321l0.023,-0.321l0.022,-0.322l0.019,-0.322l0.017,-0.323l0.016,-0.323l0.013,-0.324l0.011,-0.324l0.01,-0.325l0.007,-0.326l0.005,-0.326l0.003,-0.326l0.001,-0.327l-0.001,-0.327l-0.003,-0.326l-0.005,-0.326l-0.007,-0.325l-0.01,-0.325l-0.011,-0.325l-0.013,-0.323l-0.016,-0.324l-0.017,-0.323l-0.019,-0.322l-0.022,-0.322l-0.023,-0.321l-0.026,-0.32l-0.027,-0.32l-0.03,-0.32l-0.031,-0.319l-0.034,-0.318l-0.035,-0.318l-0.037,-0.317l-0.039,-0.317l-0.042,-0.316l-0.043,-0.315l-0.045,-0.315l-0.047,-0.314l-0.049,-0.313l-0.051,-0.313l-0.053,-0.312l-0.054,-0.312l-0.057,-0.311l-0.058,-0.31l-0.061,-0.309l-0.062,-0.309l-0.064,-0.309l-0.066,-0.307l-0.068,-0.307l-0.07,-0.306l-0.071,-0.305l-0.074,-0.305l-0.075,-0.304l-0.077,-0.303l-0.079,-0.303l-0.081,-0.302l-0.082,-0.301l-0.085,-0.3l-0.086,-0.3l-0.088,-0.298l-0.09,-0.298l-0.091,-0.298l-0.094,-0.296l-0.095,-0.296l-0.096,-0.295l-0.099,-0.294l-0.1,-0.293l-0.102,-0.293l-0.104,-0.291l-0.106,-0.291l-0.107,-0.29l-0.109,-0.289l-0.111,-0.289l-0.112,-0.287l-0.114,-0.287l-0.116,-0.286l-0.118,-0.284l-0.119,-0.285l-0.121,-0.283l-0.122,-0.282l-0.125,-0.281l-0.125,-0.281l-0.128,-0.279l-0.129,-0.279l-0.131,-0.278l-0.132,-0.277l-0.134,-0.275l-0.136,-0.275l-0.137,-0.274l-0.139,-0.274l-0.141,-0.272l-0.142,-0.271l-0.144,-0.27l-0.145,-0.269l-0.147,-0.268l-0.148,-0.268l-0.15,-0.266l-0.152,-0.265l-0.153,-0.264l-0.154,-0.264l-0.157,-0.262l-0.157,-0.261l-0.159,-0.26l-0.161,-0.26l-0.163,-0.258l-0.163,-0.257l-0.166,-0.256l-0.166,-0.255l-0.169,-0.254l-0.169,-0.252l-0.172,-0.252l-0.172,-0.251l-0.174,-0.249l-0.176,-0.249l-0.177,-0.247l-0.179,-0.246l-0.18,-0.245l-0.181,-0.244l-0.183,-0.243l-0.184,-0.242l-0.186,-0.241l-0.187,-0.239l-0.188,-0.238l-0.19,-0.238l-0.191,-0.236l-0.193,-0.234l-0.194,-0.234l-0.195,-0.232l-0.197,-0.232l-0.198,-0.23l-0.2,-0.229l-0.201,-0.227l-0.202,-0.227l-0.203,-0.225l-0.205,-0.224l-0.206,-0.223l-0.208,-0.221l-0.208,-0.22l-0.21,-0.219l-0.212,-0.218l-0.212,-0.216l-0.214,-0.216l-0.215,-0.214l-0.217,-0.212l-0.218,-0.212l-0.219,-0.21l-0.22,-0.208l-0.221,-0.208l-0.223,-0.206l-0.224,-0.205l-0.225,-0.203l-0.227,-0.202l-0.227,-0.201l-0.229,-0.2l-0.23,-0.198l-0.232,-0.197l-0.232,-0.195l-0.234,-0.194l-0.234,-0.193l-0.236,-0.191l-0.238,-0.19l-0.238,-0.188l-0.239,-0.187l-0.241,-0.186l-0.242,-0.184l-0.243,-0.183l-0.244,-0.181l-0.245,-0.18l-0.246,-0.179l-0.247,-0.177l-0.249,-0.176l-0.249,-0.174l-0.251,-0.172l-0.252,-0.172l-0.252,-0.169l-0.254,-0.169l-0.255,-0.166l-0.256,-0.166l-0.257,-0.163l-0.258,-0.163l-0.26,-0.16l-0.26,-0.16l-0.261,-0.157l-0.262,-0.157l-0.263,-0.154l-0.265,-0.153l-0.265,-0.152l-0.266,-0.15l-0.268,-0.148l-0.268,-0.147l-0.269,-0.145l-0.27,-0.144l-0.271,-0.142l-0.272,-0.141l-0.274,-0.139l-0.274,-0.137l-0.274,-0.136l-0.276,-0.134l-0.277,-0.132l-0.278,-0.131l-0.279,-0.129l-0.279,-0.128l-0.281,-0.125l-0.281,-0.125l-0.282,-0.122l-0.283,-0.121l-0.284,-0.119l-0.285,-0.118l-0.286,-0.116l-0.287,-0.114l-0.287,-0.112l-0.289,-0.111l-0.289,-0.109l-0.29,-0.107l-0.291,-0.106l-0.291,-0.104l-0.293,-0.102l-0.293,-0.1l-0.294,-0.099l-0.295,-0.096l-0.296,-0.095l-0.296,-0.094l-0.298,-0.091l-0.298,-0.09l-0.298,-0.088l-0.3,-0.086l-0.3,-0.085l-0.301,-0.082l-0.302,-0.081l-0.303,-0.079l-0.303,-0.077l-0.304,-0.075l-0.305,-0.074l-0.305,-0.071l-0.306,-0.07l-0.307,-0.068l-0.307,-0.066l-0.309,-0.064l-0.309,-0.062l-0.309,-0.061l-0.31,-0.058l-0.311,-0.057l-0.312,-0.054l-0.312,-0.053l-0.313,-0.051l-0.313,-0.049l-0.314,-0.047l-0.315,-0.045l-0.315,-0.043l-0.316,-0.042l-0.317,-0.039l-0.317,-0.037l-0.318,-0.035l-0.318,-0.034l-0.319,-0.031l-0.32,-0.03l-0.32,-0.027l-0.32,-0.026l-0.321,-0.023l-0.322,-0.021l-0.322,-0.02l-0.323,-0.017l-0.324,-0.016l-0.323,-0.013l-0.325,-0.011l-0.325,-0.01l-0.325,-0.007l-0.326,-0.005l-0.326,-0.003l-0.327,-0.001l-0.327,0.001Z" style="fill:#9d46ff;"/><path d="M688.57,65.216l-6.908,6.515l52.765,55.947l6.908,-6.515l-52.765,-55.947Z" style="fill:#9d46ff;"/><path d="M1368.98,359.318l-18.593,46.33l186.166,74.714l18.593,-46.329l-186.166,-74.715Z" style="fill:none;stroke:#9d46ff;stroke-width:13px;"/><path d="M893.114,361.278l-13.934,-6.028l-24.222,55.992l13.934,6.028l24.222,-55.992Z" style="fill:#9d46ff;"/><circle cx="1157.7" cy="385.815" r="21.318" style="fill:#9d46ff;"/><path d="M1645.76,204.897l-41.587,76.282l-107.734,-58.735l41.587,-76.282l107.734,58.735Zm-135.961,13.614l90.441,49.307l32.159,-58.988l-90.441,-49.307l-32.159,58.988Z" style="fill:#9d46ff;"/><path d="M441.257,313.104l-24.802,24.628l23.78,23.947l24.802,-24.628l-23.78,-23.947Z" style="fill:#9d46ff;"/><path d="M1621.7,-17.474l-147.13,108.646l-20.524,-181.742l167.654,73.096Zm-140.886,94.323l125.36,-92.569l-142.847,-62.281l17.487,154.85Zm84.004,-87.899l-33.685,24.874l-33.685,24.874l-9.398,-83.219l76.768,33.471Zm-61.126,35.426l22.8,-16.836l22.8,-16.837l-51.961,-22.654l6.361,56.327Z" style="fill:#9d46ff;"/><path d="M1237.68,76.466l-85.281,34.981l12.346,-91.346l72.935,56.365Zm-70.227,15.503l45.831,-18.8l-19.598,-15.146l-19.598,-15.145l-6.635,49.091Z" style="fill:#9d46ff;"/><path d="M939.984,52.413l43.334,-6.367l-22.95,45.134l-20.384,-38.767Z" style="fill:#9d46ff;"/><circle cx="307.153" cy="50.02" r="9.909" style="fill:#9d46ff;"/><rect x="218.95" y="32.976" width="256.062" height="360.814" style="fill:#83ffd5;stroke:#9d46ff;stroke-width:7px;stroke-linecap:square;stroke-linejoin:miter;stroke-miterlimit:3;"/><rect x="243.721" y="67.88" width="206.521" height="291.005" style="fill:#83ffd5;stroke:#9d46ff;stroke-width:7px;stroke-linecap:square;stroke-linejoin:miter;stroke-miterlimit:3;"/><path d="M323.347,313.095l-36.473,0l18.237,-31.119c6.078,10.373 12.157,20.746 18.236,31.119Zm-31.005,-3.134l25.537,0l-12.768,-21.788c-4.256,7.263 -8.513,14.525 -12.769,21.788Z" style="fill:#9d46ff;fill-rule:nonzero;stroke:#9d46ff;stroke-width:2px;stroke-miterlimit:1.41421;"/><path d="M349.585,154.008l-20.002,0.005l-46.103,74.886l19.684,0.008l46.421,-74.899Z" style="fill:#9d46ff;"/><path d="M370.724,284.096l-8.795,12.671l47.461,32.944l8.795,-12.671l-47.461,-32.944Z" style="fill:#9d46ff;"/><path d="M452.71,127.2l10.657,10.813l43.451,-42.824l-10.657,-10.813l-43.451,42.824Z" style="fill:#9d46ff;"/><path d="M420.916,157.818l-37.946,15.565l5.493,-40.645l32.453,25.08Zm-31.248,6.897l20.393,-8.364l-8.72,-6.74l-8.721,-6.739l-2.952,21.843Z" style="fill:#9d46ff;"/><circle cx="296.04" cy="104.716" r="15.291" style="fill:#9d46ff;"/><path d="M422.616,231.341l-3.411,13.414l108.642,27.627l3.411,-13.414l-108.642,-27.627Z" style="fill:#9d46ff;"/><path d="M578.581,191.003l41.593,-6.111l-22.028,43.32l-19.565,-37.209Z" style="fill:#9d46ff;"/><path d="M1822.23,467.128l-134.668,-44.963l99.072,-72.577l35.596,117.54Zm-102.404,-50.004l79.641,26.59l-21.051,-69.511l-58.59,42.921Z" style="fill:#9d46ff;"/><path d="M1845.91,126.598l0.476,0.005l0.469,0.008l0.471,0.01l0.476,0.014l0.467,0.016l0.471,0.019l0.47,0.023l0.466,0.025l0.466,0.028l0.469,0.031l0.469,0.034l0.461,0.037l0.464,0.04l0.468,0.043l0.463,0.045l0.462,0.049l0.463,0.051l0.463,0.055l0.46,0.057l0.458,0.06l0.456,0.062l0.459,0.066l0.461,0.069l0.454,0.071l0.454,0.074l0.455,0.077l0.452,0.079l0.453,0.083l0.453,0.085l0.449,0.088l0.45,0.09l0.449,0.094l0.449,0.096l0.446,0.099l0.445,0.101l0.448,0.105l0.444,0.107l0.441,0.109l0.44,0.112l0.441,0.115l0.44,0.118l0.44,0.12l0.436,0.123l0.438,0.126l0.433,0.128l0.436,0.131l0.435,0.134l0.427,0.134l0.433,0.139l0.429,0.141l0.428,0.144l0.429,0.147l0.426,0.148l0.424,0.151l0.423,0.154l0.422,0.156l0.425,0.16l0.416,0.16l0.419,0.163l0.42,0.168l0.411,0.166l0.419,0.173l0.414,0.174l0.41,0.175l0.415,0.18l0.407,0.18l0.406,0.182l0.409,0.186l0.406,0.189l0.4,0.188l0.405,0.194l0.406,0.197l0.399,0.197l0.397,0.199l0.397,0.202l0.395,0.204l0.393,0.206l0.396,0.21l0.391,0.211l0.39,0.214l0.388,0.215l0.387,0.218l0.386,0.221l0.384,0.222l0.387,0.228l0.378,0.225l0.377,0.227l0.383,0.235l0.377,0.233l0.372,0.235l0.375,0.239l0.37,0.238l0.372,0.243l0.37,0.246l0.366,0.246l0.367,0.25l0.366,0.252l0.362,0.252l0.356,0.252l0.361,0.258l0.364,0.264l0.352,0.259l0.354,0.263l0.354,0.267l0.348,0.265l0.349,0.269l0.347,0.271l0.35,0.276l0.344,0.276l0.341,0.277l0.345,0.282l0.334,0.278l0.339,0.285l0.34,0.289l0.331,0.285l0.331,0.289l0.332,0.292l0.326,0.291l0.328,0.297l0.327,0.299l0.321,0.296l0.323,0.303l0.323,0.306l0.317,0.304l0.311,0.303l0.316,0.309l0.314,0.313l0.312,0.313l0.307,0.314l0.304,0.313l0.307,0.32l0.306,0.323l0.301,0.321l0.296,0.32l0.297,0.324l0.297,0.329l0.292,0.328l0.291,0.329l0.294,0.337l0.284,0.331l0.285,0.334l0.285,0.34l0.283,0.34l0.281,0.343l0.273,0.337l0.278,0.346l0.274,0.348l0.272,0.347l0.27,0.351l0.269,0.352l0.263,0.35l0.263,0.354l0.263,0.357l0.258,0.357l0.257,0.358l0.254,0.36l0.257,0.367l0.25,0.364l0.246,0.362l0.25,0.372l0.243,0.367l0.24,0.366l0.243,0.376l0.24,0.378l0.234,0.371l0.231,0.373l0.235,0.384l0.228,0.378l0.225,0.377l0.228,0.389l0.225,0.388l0.216,0.379l0.219,0.387l0.216,0.39l0.211,0.385l0.215,0.398l0.208,0.392l0.207,0.394l0.203,0.395l0.203,0.398l0.202,0.404l0.196,0.397l0.195,0.4l0.192,0.401l0.188,0.401l0.191,0.41l0.187,0.412l0.182,0.405l0.179,0.405l0.18,0.414l0.177,0.415l0.172,0.41l0.172,0.418l0.169,0.418l0.165,0.412l0.164,0.419l0.161,0.422l0.157,0.414l0.157,0.424l0.156,0.432l0.151,0.424l0.149,0.426l0.146,0.426l0.141,0.422l0.143,0.435l0.138,0.43l0.135,0.429l0.135,0.439l0.13,0.432l0.128,0.433l0.125,0.434l0.124,0.441l0.121,0.443l0.116,0.435l0.115,0.438l0.113,0.444l0.11,0.446l0.106,0.44l0.105,0.447l0.102,0.447l0.097,0.441l0.097,0.45l0.093,0.449l0.091,0.451l0.088,0.451l0.085,0.452l0.083,0.453l0.079,0.453l0.077,0.454l0.074,0.453l0.071,0.456l0.068,0.455l0.067,0.464l0.062,0.456l0.06,0.457l0.058,0.466l0.054,0.458l0.052,0.466l0.047,0.459l0.046,0.459l0.043,0.468l0.04,0.468l0.037,0.469l0.034,0.461l0.031,0.462l0.028,0.469l0.026,0.478l0.022,0.463l0.019,0.47l0.016,0.471l0.014,0.464l0.011,0.48l0.007,0.472l0.005,0.472l0.001,0.472l-0.001,0.473l-0.005,0.472l-0.007,0.472l-0.011,0.48l-0.014,0.463l-0.016,0.471l-0.019,0.471l-0.022,0.463l-0.026,0.478l-0.028,0.469l-0.031,0.462l-0.034,0.461l-0.037,0.469l-0.04,0.467l-0.043,0.468l-0.046,0.46l-0.047,0.459l-0.052,0.466l-0.054,0.458l-0.058,0.465l-0.06,0.458l-0.062,0.456l-0.067,0.464l-0.068,0.455l-0.071,0.455l-0.074,0.455l-0.077,0.453l-0.079,0.453l-0.082,0.452l-0.086,0.452l-0.088,0.452l-0.091,0.451l-0.093,0.449l-0.097,0.45l-0.097,0.441l-0.102,0.448l-0.105,0.447l-0.106,0.438l-0.11,0.446l-0.114,0.446l-0.113,0.435l-0.117,0.436l-0.121,0.443l-0.124,0.443l-0.125,0.433l-0.128,0.433l-0.13,0.432l-0.134,0.438l-0.136,0.43l-0.138,0.429l-0.144,0.437l-0.14,0.42l-0.146,0.426l-0.149,0.427l-0.151,0.425l-0.156,0.431l-0.157,0.422l-0.157,0.416l-0.161,0.421l-0.164,0.42l-0.165,0.412l-0.17,0.42l-0.172,0.417l-0.171,0.407l-0.177,0.415l-0.18,0.416l-0.179,0.405l-0.182,0.405l-0.187,0.411l-0.191,0.411l-0.189,0.402l-0.191,0.4l-0.194,0.398l-0.197,0.401l-0.203,0.404l-0.201,0.394l-0.203,0.395l-0.208,0.396l-0.209,0.394l-0.214,0.395l-0.211,0.386l-0.216,0.39l-0.219,0.387l-0.217,0.381l-0.223,0.384l-0.229,0.391l-0.225,0.377l-0.226,0.375l-0.237,0.387l-0.231,0.373l-0.235,0.373l-0.239,0.376l-0.242,0.374l-0.242,0.369l-0.242,0.366l-0.248,0.37l-0.25,0.366l-0.25,0.363l-0.255,0.365l-0.254,0.36l-0.257,0.359l-0.258,0.356l-0.261,0.356l-0.263,0.353l-0.267,0.355l-0.267,0.35l-0.269,0.349l-0.274,0.351l-0.273,0.346l-0.276,0.344l-0.276,0.341l-0.28,0.34l-0.283,0.341l-0.287,0.341l-0.281,0.331l-0.285,0.331l-0.297,0.341l-0.289,0.327l-0.29,0.326l-0.299,0.33l-0.297,0.325l-0.298,0.322l-0.299,0.319l-0.304,0.321l-0.311,0.324l-0.302,0.311l-0.305,0.311l-0.317,0.318l-0.311,0.31l-0.314,0.308l-0.313,0.304l-0.317,0.305l-0.326,0.308l-0.323,0.302l-0.318,0.295l-0.324,0.297l-0.329,0.296l-0.328,0.293l-0.332,0.293l-0.331,0.289l-0.334,0.287l-0.337,0.287l-0.339,0.285l-0.334,0.277l-0.342,0.281l-0.347,0.281l-0.341,0.273l-0.35,0.277l-0.347,0.271l-0.346,0.267l-0.353,0.269l-0.352,0.265l-0.351,0.261l-0.358,0.263l-0.361,0.261l-0.358,0.257l-0.359,0.254l-0.364,0.254l-0.364,0.25l-0.364,0.248l-0.372,0.25l-0.367,0.243l-0.372,0.244l-0.37,0.238l-0.375,0.239l-0.375,0.236l-0.371,0.23l-0.383,0.235l-0.38,0.229l-0.381,0.227l-0.384,0.225l-0.381,0.221l-0.389,0.222l-0.387,0.218l-0.388,0.216l-0.39,0.213l-0.391,0.211l-0.396,0.211l-0.393,0.206l-0.395,0.204l-0.397,0.202l-0.397,0.199l-0.402,0.198l-0.403,0.196l-0.402,0.192l-0.403,0.19l-0.406,0.188l-0.409,0.187l-0.406,0.182l-0.411,0.181l-0.411,0.179l-0.41,0.175l-0.414,0.174l-0.416,0.171l-0.414,0.168l-0.42,0.167l-0.419,0.164l-0.42,0.161l-0.421,0.159l-0.419,0.155l-0.426,0.155l-0.424,0.151l-0.426,0.148l-0.429,0.147l-0.431,0.145l-0.426,0.139l-0.43,0.139l-0.434,0.136l-0.431,0.133l-0.432,0.13l-0.437,0.129l-0.438,0.126l-0.436,0.122l-0.44,0.121l-0.44,0.118l-0.441,0.115l-0.44,0.112l-0.441,0.109l-0.444,0.107l-0.448,0.105l-0.449,0.102l-0.442,0.098l-0.445,0.095l-0.453,0.094l-0.45,0.091l-0.449,0.088l-0.453,0.085l-0.453,0.083l-0.452,0.079l-0.455,0.077l-0.454,0.074l-0.458,0.071l-0.457,0.069l-0.455,0.065l-0.46,0.063l-0.461,0.06l-0.461,0.057l-0.459,0.054l-0.463,0.052l-0.462,0.048l-0.463,0.046l-0.464,0.043l-0.465,0.039l-0.468,0.038l-0.465,0.033l-0.465,0.032l-0.47,0.028l-0.47,0.025l-0.466,0.022l-0.468,0.02l-0.474,0.016l-0.472,0.014l-0.467,0.01l-0.476,0.008l-0.473,0.004l-0.472,0.002l-0.473,-0.002l-0.472,-0.004l-0.476,-0.008l-0.468,-0.01l-0.471,-0.014l-0.475,-0.016l-0.467,-0.02l-0.466,-0.022l-0.471,-0.025l-0.469,-0.028l-0.466,-0.032l-0.465,-0.033l-0.468,-0.038l-0.465,-0.039l-0.464,-0.043l-0.463,-0.046l-0.462,-0.048l-0.463,-0.052l-0.459,-0.054l-0.46,-0.057l-0.462,-0.06l-0.46,-0.063l-0.455,-0.065l-0.457,-0.069l-0.458,-0.071l-0.453,-0.074l-0.455,-0.077l-0.453,-0.079l-0.452,-0.083l-0.453,-0.085l-0.45,-0.088l-0.45,-0.091l-0.453,-0.094l-0.444,-0.095l-0.445,-0.099l-0.447,-0.101l-0.446,-0.105l-0.446,-0.107l-0.44,-0.109l-0.44,-0.112l-0.442,-0.115l-0.44,-0.118l-0.439,-0.121l-0.437,-0.122l-0.438,-0.126l-0.436,-0.129l-0.433,-0.13l-0.431,-0.133l-0.434,-0.136l-0.429,-0.139l-0.426,-0.139l-0.432,-0.145l-0.429,-0.147l-0.425,-0.148l-0.425,-0.151l-0.426,-0.155l-0.418,-0.155l-0.422,-0.159l-0.42,-0.161l-0.419,-0.164l-0.42,-0.167l-0.414,-0.168l-0.415,-0.171l-0.414,-0.174l-0.41,-0.175l-0.412,-0.179l-0.411,-0.181l-0.406,-0.182l-0.408,-0.187l-0.407,-0.188l-0.403,-0.19l-0.401,-0.192l-0.404,-0.196l-0.401,-0.198l-0.398,-0.199l-0.396,-0.202l-0.395,-0.204l-0.394,-0.206l-0.396,-0.211l-0.391,-0.211l-0.39,-0.213l-0.388,-0.216l-0.387,-0.218l-0.389,-0.222l-0.381,-0.221l-0.384,-0.225l-0.381,-0.227l-0.38,-0.229l-0.383,-0.235l-0.37,-0.23l-0.376,-0.236l-0.375,-0.239l-0.369,-0.238l-0.372,-0.244l-0.368,-0.243l-0.372,-0.25l-0.364,-0.248l-0.363,-0.25l-0.364,-0.254l-0.359,-0.254l-0.359,-0.257l-0.361,-0.261l-0.357,-0.263l-0.351,-0.261l-0.352,-0.265l-0.354,-0.269l-0.346,-0.267l-0.347,-0.271l-0.35,-0.277l-0.345,-0.276l-0.342,-0.278l-0.338,-0.277l-0.339,-0.281l-0.339,-0.285l-0.337,-0.287l-0.333,-0.287l-0.332,-0.289l-0.332,-0.293l-0.328,-0.293l-0.328,-0.296l-0.324,-0.297l-0.319,-0.295l-0.323,-0.302l-0.325,-0.308l-0.317,-0.305l-0.314,-0.304l-0.313,-0.308l-0.312,-0.31l-0.316,-0.318l-0.306,-0.311l-0.306,-0.315l-0.306,-0.32l-0.301,-0.317l-0.302,-0.323l-0.299,-0.322l-0.296,-0.325l-0.299,-0.33l-0.291,-0.326l-0.289,-0.327l-0.297,-0.341l-0.285,-0.331l-0.281,-0.331l-0.287,-0.341l-0.283,-0.341l-0.279,-0.34l-0.277,-0.341l-0.275,-0.344l-0.273,-0.346l-0.275,-0.351l-0.269,-0.349l-0.267,-0.35l-0.266,-0.355l-0.263,-0.353l-0.261,-0.356l-0.259,-0.356l-0.256,-0.359l-0.255,-0.36l-0.255,-0.365l-0.25,-0.363l-0.249,-0.366l-0.249,-0.37l-0.242,-0.366l-0.241,-0.369l-0.242,-0.374l-0.24,-0.376l-0.234,-0.373l-0.235,-0.379l-0.233,-0.381l-0.227,-0.375l-0.224,-0.377l-0.226,-0.385l-0.227,-0.39l-0.217,-0.381l-0.218,-0.387l-0.217,-0.39l-0.211,-0.386l-0.213,-0.395l-0.21,-0.394l-0.207,-0.396l-0.207,-0.401l-0.197,-0.388l-0.2,-0.398l-0.201,-0.407l-0.193,-0.398l-0.191,-0.4l-0.19,-0.402l-0.19,-0.411l-0.188,-0.411l-0.181,-0.405l-0.18,-0.405l-0.18,-0.416l-0.177,-0.415l-0.171,-0.407l-0.172,-0.417l-0.17,-0.42l-0.164,-0.412l-0.164,-0.42l-0.162,-0.421l-0.157,-0.416l-0.156,-0.422l-0.157,-0.431l-0.151,-0.425l-0.149,-0.427l-0.145,-0.426l-0.141,-0.42l-0.144,-0.437l-0.138,-0.429l-0.135,-0.43l-0.135,-0.438l-0.13,-0.432l-0.127,-0.433l-0.125,-0.433l-0.125,-0.443l-0.121,-0.443l-0.116,-0.436l-0.114,-0.435l-0.113,-0.446l-0.111,-0.446l-0.105,-0.438l-0.105,-0.447l-0.102,-0.448l-0.098,-0.441l-0.096,-0.45l-0.094,-0.449l-0.091,-0.451l-0.088,-0.452l-0.085,-0.452l-0.082,-0.452l-0.08,-0.453l-0.077,-0.453l-0.074,-0.455l-0.071,-0.455l-0.068,-0.455l-0.067,-0.464l-0.063,-0.464l-0.058,-0.45l-0.058,-0.457l-0.054,-0.466l-0.052,-0.466l-0.048,-0.459l-0.046,-0.46l-0.043,-0.468l-0.04,-0.467l-0.037,-0.469l-0.033,-0.461l-0.031,-0.462l-0.029,-0.469l-0.026,-0.478l-0.021,-0.463l-0.02,-0.471l-0.016,-0.471l-0.014,-0.463l-0.01,-0.48l-0.008,-0.472l-0.004,-0.472l-0.002,-0.473l0.002,-0.472l0.004,-0.472l0.008,-0.472l0.01,-0.48l0.014,-0.464l0.016,-0.471l0.02,-0.47l0.021,-0.463l0.026,-0.478l0.029,-0.469l0.031,-0.462l0.033,-0.461l0.037,-0.469l0.04,-0.468l0.043,-0.468l0.046,-0.459l0.048,-0.459l0.052,-0.466l0.054,-0.466l0.058,-0.458l0.058,-0.449l0.063,-0.464l0.067,-0.464l0.068,-0.455l0.071,-0.456l0.074,-0.453l0.077,-0.454l0.08,-0.453l0.082,-0.453l0.085,-0.452l0.088,-0.451l0.091,-0.451l0.094,-0.449l0.096,-0.45l0.098,-0.441l0.101,-0.447l0.105,-0.447l0.106,-0.44l0.111,-0.446l0.113,-0.444l0.114,-0.438l0.116,-0.435l0.121,-0.443l0.124,-0.441l0.126,-0.434l0.127,-0.433l0.13,-0.432l0.135,-0.439l0.135,-0.429l0.138,-0.43l0.144,-0.435l0.141,-0.422l0.146,-0.426l0.148,-0.426l0.151,-0.424l0.157,-0.432l0.157,-0.424l0.156,-0.414l0.162,-0.422l0.164,-0.419l0.164,-0.412l0.169,-0.418l0.173,-0.418l0.172,-0.41l0.177,-0.415l0.179,-0.414l0.18,-0.405l0.181,-0.405l0.188,-0.412l0.19,-0.41l0.189,-0.401l0.192,-0.401l0.194,-0.4l0.199,-0.404l0.2,-0.397l0.199,-0.392l0.207,-0.401l0.206,-0.394l0.209,-0.392l0.214,-0.398l0.211,-0.385l0.217,-0.39l0.218,-0.387l0.216,-0.379l0.229,-0.394l0.225,-0.383l0.224,-0.377l0.228,-0.378l0.232,-0.378l0.235,-0.379l0.233,-0.371l0.241,-0.378l0.243,-0.376l0.239,-0.366l0.243,-0.367l0.25,-0.372l0.247,-0.362l0.25,-0.364l0.256,-0.367l0.255,-0.36l0.256,-0.358l0.259,-0.357l0.262,-0.357l0.263,-0.354l0.263,-0.35l0.269,-0.352l0.271,-0.351l0.271,-0.347l0.275,-0.348l0.277,-0.346l0.273,-0.337l0.281,-0.343l0.283,-0.34l0.285,-0.34l0.285,-0.334l0.285,-0.331l0.293,-0.337l0.291,-0.329l0.293,-0.328l0.297,-0.329l0.296,-0.324l0.297,-0.32l0.304,-0.326l0.303,-0.318l0.302,-0.316l0.308,-0.317l0.308,-0.314l0.312,-0.313l0.314,-0.313l0.315,-0.309l0.312,-0.303l0.317,-0.304l0.323,-0.306l0.323,-0.303l0.321,-0.296l0.326,-0.299l0.329,-0.297l0.325,-0.291l0.332,-0.292l0.332,-0.289l0.331,-0.285l0.339,-0.289l0.339,-0.285l0.339,-0.281l0.34,-0.279l0.337,-0.274l0.348,-0.279l0.35,-0.276l0.347,-0.271l0.349,-0.269l0.348,-0.265l0.355,-0.267l0.353,-0.263l0.353,-0.259l0.363,-0.264l0.362,-0.258l0.356,-0.252l0.361,-0.252l0.366,-0.252l0.367,-0.25l0.366,-0.246l0.371,-0.246l0.372,-0.243l0.369,-0.238l0.375,-0.239l0.373,-0.235l0.376,-0.233l0.383,-0.235l0.377,-0.227l0.378,-0.225l0.387,-0.228l0.384,-0.222l0.386,-0.221l0.387,-0.218l0.388,-0.215l0.39,-0.214l0.391,-0.211l0.396,-0.21l0.394,-0.206l0.395,-0.204l0.396,-0.202l0.398,-0.199l0.398,-0.197l0.407,-0.197l0.404,-0.194l0.4,-0.188l0.407,-0.189l0.408,-0.186l0.406,-0.182l0.408,-0.18l0.415,-0.18l0.41,-0.175l0.414,-0.174l0.418,-0.173l0.411,-0.166l0.42,-0.168l0.419,-0.163l0.417,-0.16l0.425,-0.16l0.422,-0.156l0.422,-0.154l0.425,-0.151l0.425,-0.148l0.429,-0.147l0.428,-0.144l0.43,-0.141l0.433,-0.139l0.426,-0.134l0.435,-0.134l0.436,-0.131l0.433,-0.128l0.438,-0.126l0.437,-0.123l0.439,-0.12l0.44,-0.118l0.442,-0.115l0.44,-0.112l0.44,-0.109l0.446,-0.107l0.446,-0.105l0.444,-0.101l0.448,-0.099l0.448,-0.096l0.449,-0.094l0.45,-0.09l0.45,-0.088l0.453,-0.085l0.452,-0.083l0.453,-0.079l0.455,-0.077l0.453,-0.074l0.454,-0.071l0.461,-0.069l0.459,-0.066l0.456,-0.062l0.458,-0.06l0.46,-0.057l0.463,-0.055l0.463,-0.051l0.462,-0.049l0.463,-0.045l0.468,-0.043l0.465,-0.04l0.46,-0.037l0.469,-0.034l0.469,-0.031l0.466,-0.028l0.467,-0.025l0.47,-0.023l0.47,-0.019l0.468,-0.016l0.475,-0.014l0.472,-0.01l0.468,-0.008l0.476,-0.005l0.473,-0.001l0.472,0.001Zm-0.844,16l-0.372,0.004l-0.37,0.006l-0.37,0.008l-0.37,0.011l-0.369,0.012l-0.369,0.016l-0.367,0.017l-0.368,0.02l-0.366,0.022l-0.366,0.024l-0.366,0.027l-0.365,0.029l-0.364,0.031l-0.363,0.034l-0.363,0.035l-0.362,0.038l-0.362,0.041l-0.36,0.042l-0.361,0.045l-0.359,0.047l-0.359,0.049l-0.358,0.051l-0.357,0.054l-0.357,0.055l-0.356,0.058l-0.355,0.06l-0.354,0.063l-0.354,0.064l-0.353,0.066l-0.352,0.069l-0.352,0.071l-0.35,0.073l-0.35,0.075l-0.349,0.077l-0.348,0.08l-0.348,0.081l-0.347,0.084l-0.345,0.085l-0.345,0.088l-0.345,0.09l-0.343,0.092l-0.342,0.094l-0.342,0.096l-0.341,0.098l-0.34,0.1l-0.339,0.102l-0.338,0.104l-0.337,0.106l-0.337,0.108l-0.335,0.11l-0.335,0.113l-0.334,0.114l-0.332,0.116l-0.332,0.118l-0.331,0.12l-0.33,0.122l-0.329,0.124l-0.328,0.126l-0.327,0.128l-0.326,0.13l-0.325,0.132l-0.324,0.133l-0.324,0.136l-0.322,0.137l-0.321,0.14l-0.32,0.141l-0.319,0.143l-0.318,0.145l-0.317,0.147l-0.316,0.149l-0.315,0.151l-0.314,0.152l-0.313,0.155l-0.312,0.156l-0.31,0.158l-0.31,0.16l-0.308,0.161l-0.308,0.164l-0.306,0.165l-0.305,0.167l-0.304,0.169l-0.303,0.171l-0.302,0.172l-0.301,0.174l-0.299,0.176l-0.298,0.178l-0.298,0.179l-0.296,0.182l-0.294,0.182l-0.294,0.185l-0.292,0.186l-0.292,0.188l-0.29,0.19l-0.289,0.192l-0.287,0.193l-0.287,0.195l-0.285,0.196l-0.284,0.198l-0.282,0.2l-0.282,0.201l-0.28,0.203l-0.279,0.205l-0.277,0.207l-0.277,0.208l-0.275,0.209l-0.273,0.211l-0.273,0.213l-0.271,0.215l-0.27,0.216l-0.268,0.217l-0.267,0.219l-0.266,0.221l-0.265,0.222l-0.263,0.224l-0.261,0.226l-0.261,0.227l-0.259,0.228l-0.257,0.23l-0.257,0.231l-0.254,0.234l-0.254,0.234l-0.252,0.236l-0.25,0.238l-0.25,0.239l-0.247,0.24l-0.247,0.242l-0.244,0.243l-0.244,0.245l-0.242,0.246l-0.24,0.248l-0.239,0.249l-0.238,0.251l-0.236,0.252l-0.234,0.253l-0.233,0.255l-0.232,0.256l-0.23,0.258l-0.228,0.259l-0.227,0.26l-0.225,0.262l-0.224,0.263l-0.223,0.264l-0.22,0.266l-0.219,0.267l-0.218,0.269l-0.216,0.27l-0.214,0.271l-0.213,0.272l-0.211,0.274l-0.21,0.275l-0.208,0.276l-0.206,0.278l-0.205,0.279l-0.203,0.28l-0.202,0.281l-0.2,0.283l-0.198,0.284l-0.196,0.285l-0.195,0.286l-0.193,0.288l-0.192,0.289l-0.189,0.29l-0.188,0.291l-0.187,0.293l-0.184,0.293l-0.183,0.295l-0.181,0.296l-0.18,0.297l-0.177,0.299l-0.176,0.299l-0.174,0.301l-0.173,0.302l-0.171,0.302l-0.168,0.305l-0.167,0.305l-0.166,0.306l-0.163,0.307l-0.162,0.309l-0.16,0.309l-0.158,0.311l-0.156,0.312l-0.154,0.313l-0.153,0.314l-0.15,0.315l-0.149,0.315l-0.147,0.318l-0.145,0.318l-0.144,0.319l-0.141,0.32l-0.139,0.321l-0.138,0.322l-0.135,0.323l-0.134,0.324l-0.132,0.325l-0.13,0.327l-0.128,0.327l-0.126,0.328l-0.124,0.329l-0.122,0.33l-0.12,0.331l-0.118,0.331l-0.116,0.333l-0.114,0.334l-0.112,0.334l-0.11,0.336l-0.109,0.336l-0.106,0.338l-0.104,0.338l-0.102,0.339l-0.1,0.34l-0.098,0.341l-0.096,0.341l-0.094,0.343l-0.092,0.343l-0.09,0.344l-0.087,0.345l-0.086,0.346l-0.084,0.347l-0.081,0.347l-0.079,0.349l-0.078,0.349l-0.075,0.349l-0.073,0.351l-0.07,0.352l-0.069,0.352l-0.067,0.353l-0.064,0.353l-0.062,0.355l-0.06,0.355l-0.058,0.356l-0.056,0.356l-0.054,0.358l-0.051,0.358l-0.049,0.359l-0.047,0.359l-0.045,0.36l-0.042,0.361l-0.04,0.362l-0.038,0.362l-0.036,0.363l-0.033,0.363l-0.032,0.364l-0.029,0.365l-0.026,0.365l-0.025,0.366l-0.022,0.367l-0.02,0.367l-0.017,0.368l-0.015,0.369l-0.013,0.369l-0.011,0.369l-0.008,0.37l-0.006,0.371l-0.003,0.371l-0.002,0.372l0.002,0.372l0.003,0.372l0.006,0.37l0.008,0.371l0.011,0.369l0.013,0.369l0.015,0.369l0.017,0.367l0.02,0.368l0.022,0.366l0.025,0.366l0.026,0.366l0.029,0.365l0.032,0.364l0.033,0.363l0.036,0.363l0.038,0.362l0.04,0.362l0.042,0.36l0.045,0.361l0.047,0.359l0.049,0.359l0.051,0.358l0.054,0.357l0.056,0.357l0.058,0.356l0.06,0.355l0.062,0.354l0.064,0.354l0.067,0.353l0.069,0.352l0.07,0.352l0.073,0.35l0.075,0.35l0.078,0.349l0.079,0.348l0.081,0.348l0.084,0.347l0.086,0.345l0.087,0.345l0.09,0.345l0.092,0.343l0.094,0.343l0.096,0.341l0.098,0.341l0.1,0.34l0.102,0.339l0.104,0.338l0.106,0.337l0.109,0.337l0.11,0.335l0.112,0.335l0.114,0.334l0.116,0.332l0.118,0.332l0.12,0.331l0.122,0.33l0.124,0.329l0.126,0.328l0.128,0.327l0.13,0.326l0.132,0.325l0.134,0.324l0.135,0.324l0.138,0.322l0.139,0.321l0.141,0.32l0.144,0.319l0.145,0.318l0.147,0.317l0.149,0.316l0.15,0.315l0.153,0.314l0.154,0.313l0.156,0.312l0.158,0.31l0.16,0.31l0.162,0.308l0.163,0.308l0.166,0.306l0.167,0.305l0.168,0.304l0.171,0.303l0.173,0.302l0.174,0.301l0.176,0.299l0.177,0.298l0.18,0.298l0.181,0.296l0.183,0.294l0.184,0.294l0.187,0.293l0.188,0.291l0.189,0.29l0.192,0.289l0.193,0.287l0.195,0.287l0.196,0.285l0.198,0.284l0.2,0.282l0.202,0.282l0.203,0.28l0.205,0.279l0.206,0.277l0.208,0.277l0.21,0.275l0.211,0.274l0.213,0.272l0.214,0.271l0.216,0.27l0.218,0.268l0.219,0.267l0.22,0.266l0.223,0.265l0.224,0.263l0.225,0.261l0.227,0.261l0.228,0.259l0.23,0.257l0.232,0.257l0.233,0.254l0.234,0.254l0.236,0.252l0.238,0.25l0.239,0.25l0.24,0.247l0.242,0.247l0.244,0.244l0.244,0.244l0.247,0.242l0.247,0.24l0.25,0.239l0.25,0.238l0.252,0.236l0.254,0.234l0.254,0.233l0.257,0.232l0.257,0.23l0.259,0.228l0.261,0.227l0.261,0.225l0.263,0.224l0.265,0.223l0.266,0.22l0.267,0.219l0.268,0.218l0.27,0.216l0.271,0.214l0.273,0.213l0.273,0.212l0.275,0.209l0.277,0.208l0.277,0.206l0.279,0.205l0.28,0.203l0.282,0.202l0.282,0.2l0.284,0.198l0.285,0.196l0.287,0.195l0.287,0.193l0.289,0.192l0.29,0.189l0.292,0.188l0.292,0.187l0.294,0.184l0.294,0.183l0.296,0.181l0.298,0.18l0.298,0.177l0.299,0.176l0.301,0.175l0.302,0.172l0.303,0.171l0.304,0.168l0.305,0.167l0.306,0.166l0.308,0.163l0.308,0.162l0.31,0.16l0.31,0.158l0.312,0.156l0.313,0.154l0.314,0.153l0.315,0.151l0.316,0.148l0.317,0.147l0.318,0.145l0.319,0.144l0.32,0.141l0.321,0.139l0.322,0.138l0.324,0.135l0.324,0.134l0.325,0.132l0.326,0.13l0.327,0.128l0.328,0.126l0.329,0.124l0.33,0.122l0.331,0.12l0.332,0.118l0.332,0.116l0.334,0.114l0.335,0.112l0.335,0.111l0.337,0.108l0.337,0.106l0.338,0.104l0.339,0.102l0.34,0.1l0.341,0.098l0.342,0.096l0.342,0.094l0.343,0.092l0.345,0.09l0.345,0.087l0.345,0.086l0.347,0.084l0.348,0.081l0.348,0.079l0.349,0.078l0.35,0.075l0.35,0.073l0.352,0.071l0.352,0.068l0.353,0.067l0.354,0.064l0.354,0.062l0.355,0.06l0.356,0.058l0.357,0.056l0.357,0.054l0.358,0.051l0.359,0.049l0.359,0.047l0.361,0.045l0.36,0.042l0.362,0.04l0.362,0.038l0.363,0.036l0.363,0.033l0.364,0.032l0.365,0.029l0.366,0.026l0.366,0.025l0.366,0.022l0.368,0.02l0.367,0.017l0.369,0.015l0.369,0.013l0.37,0.011l0.37,0.008l0.37,0.006l0.372,0.003l0.372,0.002l0.372,-0.002l0.371,-0.003l0.371,-0.006l0.37,-0.008l0.369,-0.011l0.37,-0.013l0.368,-0.015l0.368,-0.017l0.367,-0.02l0.367,-0.022l0.366,-0.025l0.365,-0.026l0.365,-0.029l0.364,-0.032l0.364,-0.033l0.362,-0.036l0.362,-0.038l0.362,-0.04l0.361,-0.042l0.36,-0.045l0.359,-0.047l0.359,-0.049l0.358,-0.051l0.358,-0.054l0.356,-0.056l0.356,-0.058l0.355,-0.06l0.355,-0.062l0.353,-0.064l0.353,-0.067l0.353,-0.068l0.351,-0.071l0.351,-0.073l0.349,-0.075l0.349,-0.078l0.349,-0.079l0.347,-0.081l0.347,-0.084l0.346,-0.086l0.345,-0.087l0.344,-0.09l0.343,-0.092l0.343,-0.094l0.341,-0.096l0.341,-0.098l0.34,-0.1l0.339,-0.102l0.338,-0.104l0.338,-0.106l0.336,-0.108l0.336,-0.111l0.334,-0.112l0.334,-0.114l0.333,-0.116l0.332,-0.118l0.33,-0.12l0.33,-0.122l0.329,-0.124l0.328,-0.126l0.327,-0.128l0.327,-0.13l0.325,-0.132l0.324,-0.134l0.323,-0.135l0.322,-0.138l0.321,-0.139l0.32,-0.141l0.319,-0.144l0.319,-0.145l0.317,-0.147l0.316,-0.148l0.314,-0.151l0.314,-0.153l0.313,-0.154l0.312,-0.156l0.311,-0.158l0.309,-0.16l0.309,-0.162l0.307,-0.163l0.306,-0.166l0.306,-0.167l0.304,-0.168l0.302,-0.171l0.302,-0.172l0.301,-0.175l0.299,-0.176l0.299,-0.177l0.297,-0.18l0.296,-0.181l0.295,-0.183l0.293,-0.184l0.293,-0.187l0.291,-0.188l0.29,-0.189l0.289,-0.192l0.288,-0.193l0.286,-0.195l0.285,-0.196l0.284,-0.198l0.283,-0.2l0.281,-0.202l0.28,-0.203l0.279,-0.205l0.278,-0.206l0.276,-0.208l0.275,-0.209l0.274,-0.212l0.272,-0.213l0.271,-0.214l0.27,-0.216l0.269,-0.218l0.267,-0.219l0.266,-0.22l0.264,-0.223l0.263,-0.224l0.262,-0.225l0.26,-0.227l0.259,-0.228l0.258,-0.23l0.256,-0.232l0.255,-0.233l0.253,-0.234l0.252,-0.236l0.251,-0.238l0.249,-0.239l0.248,-0.24l0.246,-0.242l0.245,-0.244l0.243,-0.244l0.242,-0.247l0.241,-0.247l0.239,-0.25l0.237,-0.25l0.236,-0.252l0.235,-0.254l0.233,-0.254l0.231,-0.257l0.23,-0.257l0.228,-0.259l0.227,-0.261l0.226,-0.261l0.224,-0.263l0.222,-0.265l0.221,-0.266l0.219,-0.267l0.217,-0.268l0.216,-0.27l0.215,-0.271l0.213,-0.272l0.211,-0.274l0.209,-0.275l0.208,-0.277l0.207,-0.277l0.205,-0.279l0.203,-0.28l0.201,-0.282l0.2,-0.282l0.198,-0.284l0.197,-0.285l0.194,-0.287l0.193,-0.287l0.192,-0.289l0.19,-0.29l0.188,-0.291l0.186,-0.293l0.185,-0.294l0.182,-0.294l0.182,-0.296l0.179,-0.298l0.178,-0.298l0.176,-0.299l0.174,-0.301l0.172,-0.302l0.171,-0.303l0.169,-0.304l0.167,-0.305l0.165,-0.306l0.164,-0.308l0.161,-0.308l0.16,-0.31l0.158,-0.31l0.156,-0.312l0.155,-0.313l0.152,-0.314l0.151,-0.315l0.149,-0.316l0.147,-0.317l0.145,-0.318l0.143,-0.319l0.141,-0.32l0.14,-0.321l0.137,-0.322l0.136,-0.324l0.133,-0.324l0.132,-0.325l0.13,-0.326l0.128,-0.327l0.126,-0.328l0.124,-0.329l0.122,-0.33l0.12,-0.331l0.118,-0.332l0.116,-0.332l0.115,-0.334l0.112,-0.335l0.11,-0.335l0.108,-0.337l0.106,-0.337l0.104,-0.338l0.102,-0.339l0.1,-0.34l0.099,-0.341l0.095,-0.341l0.094,-0.343l0.092,-0.343l0.09,-0.345l0.088,-0.345l0.085,-0.345l0.084,-0.347l0.081,-0.348l0.08,-0.348l0.077,-0.349l0.075,-0.35l0.073,-0.35l0.071,-0.352l0.069,-0.352l0.066,-0.353l0.064,-0.354l0.063,-0.354l0.06,-0.355l0.058,-0.356l0.055,-0.357l0.054,-0.357l0.051,-0.358l0.049,-0.359l0.047,-0.359l0.045,-0.361l0.042,-0.36l0.041,-0.362l0.038,-0.362l0.035,-0.363l0.034,-0.363l0.031,-0.364l0.029,-0.365l0.027,-0.366l0.024,-0.366l0.022,-0.366l0.02,-0.368l0.017,-0.367l0.016,-0.369l0.013,-0.369l0.01,-0.369l0.008,-0.371l0.006,-0.37l0.004,-0.372l0.001,-0.372l-0.001,-0.372l-0.004,-0.371l-0.006,-0.371l-0.008,-0.37l-0.01,-0.369l-0.013,-0.369l-0.016,-0.369l-0.017,-0.368l-0.02,-0.367l-0.022,-0.367l-0.024,-0.366l-0.027,-0.365l-0.029,-0.365l-0.031,-0.364l-0.034,-0.363l-0.035,-0.363l-0.038,-0.362l-0.041,-0.362l-0.042,-0.361l-0.045,-0.36l-0.047,-0.359l-0.049,-0.359l-0.051,-0.358l-0.054,-0.358l-0.055,-0.356l-0.058,-0.356l-0.06,-0.355l-0.063,-0.355l-0.064,-0.353l-0.066,-0.353l-0.069,-0.352l-0.071,-0.352l-0.073,-0.351l-0.075,-0.349l-0.077,-0.349l-0.08,-0.349l-0.081,-0.347l-0.084,-0.347l-0.085,-0.346l-0.088,-0.345l-0.09,-0.344l-0.092,-0.343l-0.094,-0.343l-0.095,-0.341l-0.099,-0.341l-0.1,-0.34l-0.102,-0.339l-0.104,-0.338l-0.106,-0.338l-0.108,-0.336l-0.11,-0.336l-0.112,-0.334l-0.115,-0.334l-0.116,-0.333l-0.118,-0.331l-0.12,-0.331l-0.122,-0.33l-0.124,-0.329l-0.126,-0.328l-0.128,-0.327l-0.13,-0.327l-0.132,-0.325l-0.133,-0.324l-0.136,-0.323l-0.137,-0.322l-0.14,-0.321l-0.141,-0.32l-0.143,-0.319l-0.145,-0.318l-0.147,-0.318l-0.149,-0.315l-0.151,-0.315l-0.152,-0.314l-0.155,-0.313l-0.156,-0.312l-0.158,-0.311l-0.16,-0.309l-0.161,-0.309l-0.164,-0.307l-0.165,-0.306l-0.167,-0.305l-0.169,-0.305l-0.171,-0.302l-0.172,-0.302l-0.174,-0.301l-0.176,-0.299l-0.178,-0.299l-0.179,-0.297l-0.182,-0.296l-0.182,-0.295l-0.185,-0.293l-0.186,-0.293l-0.188,-0.291l-0.19,-0.29l-0.192,-0.289l-0.193,-0.288l-0.194,-0.286l-0.197,-0.285l-0.198,-0.284l-0.2,-0.283l-0.201,-0.281l-0.203,-0.28l-0.205,-0.279l-0.207,-0.278l-0.208,-0.276l-0.209,-0.275l-0.211,-0.274l-0.213,-0.272l-0.215,-0.271l-0.216,-0.27l-0.217,-0.269l-0.219,-0.267l-0.221,-0.266l-0.222,-0.264l-0.224,-0.263l-0.226,-0.262l-0.227,-0.26l-0.228,-0.259l-0.23,-0.258l-0.231,-0.256l-0.233,-0.255l-0.235,-0.253l-0.236,-0.252l-0.237,-0.251l-0.239,-0.249l-0.241,-0.248l-0.242,-0.246l-0.243,-0.245l-0.245,-0.243l-0.246,-0.242l-0.248,-0.24l-0.249,-0.239l-0.251,-0.238l-0.252,-0.236l-0.253,-0.234l-0.255,-0.234l-0.256,-0.231l-0.258,-0.23l-0.259,-0.228l-0.26,-0.227l-0.262,-0.226l-0.263,-0.224l-0.264,-0.222l-0.266,-0.221l-0.267,-0.219l-0.269,-0.217l-0.27,-0.216l-0.271,-0.215l-0.272,-0.213l-0.274,-0.211l-0.275,-0.209l-0.276,-0.208l-0.278,-0.207l-0.279,-0.205l-0.28,-0.203l-0.281,-0.201l-0.283,-0.2l-0.284,-0.198l-0.285,-0.196l-0.286,-0.195l-0.288,-0.193l-0.289,-0.192l-0.29,-0.19l-0.291,-0.188l-0.293,-0.186l-0.293,-0.185l-0.295,-0.182l-0.296,-0.182l-0.297,-0.179l-0.299,-0.178l-0.299,-0.176l-0.301,-0.174l-0.302,-0.172l-0.302,-0.171l-0.304,-0.169l-0.306,-0.167l-0.306,-0.165l-0.307,-0.164l-0.309,-0.161l-0.309,-0.16l-0.311,-0.158l-0.312,-0.156l-0.313,-0.155l-0.314,-0.152l-0.314,-0.151l-0.316,-0.149l-0.317,-0.147l-0.319,-0.145l-0.319,-0.143l-0.32,-0.141l-0.321,-0.14l-0.322,-0.137l-0.323,-0.136l-0.324,-0.133l-0.325,-0.132l-0.327,-0.13l-0.327,-0.128l-0.328,-0.126l-0.329,-0.124l-0.33,-0.122l-0.33,-0.12l-0.332,-0.118l-0.333,-0.116l-0.334,-0.114l-0.334,-0.113l-0.336,-0.11l-0.336,-0.108l-0.338,-0.106l-0.338,-0.104l-0.339,-0.102l-0.34,-0.1l-0.341,-0.098l-0.341,-0.096l-0.343,-0.094l-0.343,-0.092l-0.344,-0.09l-0.345,-0.088l-0.346,-0.085l-0.347,-0.084l-0.347,-0.081l-0.349,-0.08l-0.349,-0.077l-0.349,-0.075l-0.351,-0.073l-0.351,-0.071l-0.353,-0.069l-0.353,-0.066l-0.353,-0.064l-0.355,-0.063l-0.355,-0.06l-0.356,-0.058l-0.356,-0.055l-0.358,-0.054l-0.358,-0.051l-0.359,-0.049l-0.359,-0.047l-0.36,-0.045l-0.361,-0.042l-0.362,-0.041l-0.362,-0.038l-0.362,-0.035l-0.364,-0.034l-0.364,-0.031l-0.365,-0.029l-0.365,-0.027l-0.366,-0.024l-0.367,-0.022l-0.367,-0.02l-0.368,-0.017l-0.368,-0.016l-0.37,-0.012l-0.369,-0.011l-0.37,-0.008l-0.371,-0.006l-0.371,-0.004l-0.372,-0.001l-0.372,0.001Z" style="fill:#9d46ff;"/></g></svg>