<?xml version="1.0" encoding="UTF-8" standalone="no"?><!DOCTYPE svg PUBLIC "-//W3C//DTD SVG 1.1//EN" "http://www.w3.org/Graphics/SVG/1.1/DTD/svg11.dtd"><svg width="100%" height="100%" viewBox="0 0 128 128" version="1.1" xmlns="http://www.w3.org/2000/svg" xmlns:xlink="http://www.w3.org/1999/xlink" xml:space="preserve" xmlns:serif="http://www.serif.com/" style="fill-rule:evenodd;clip-rule:evenodd;stroke-linejoin:round;stroke-miterlimit:1.41421;"><rect id="videossm" x="0" y="0" width="128" height="128" style="fill:none;"/><g><path d="M111.643,121.38l-90.181,0c-2.856,-0.04 -5.381,-2.498 -5.418,-5.421l0,-55.392c0.013,-0.981 0.312,-1.923 0.818,-2.739c-0.339,-0.295 -0.625,-0.655 -0.832,-1.071c-1.645,-3.525 -3.204,-7.088 -4.806,-10.632c-0.737,-1.69 0,-3.831 1.717,-4.681c27.457,-12.728 55.243,-24.736 82.864,-37.103c0.494,-0.214 0.816,-0.318 1.548,-0.306c1.32,0.052 2.541,0.842 3.129,2.022c1.649,3.523 3.204,7.088 4.806,10.633c0.741,1.696 -0.021,3.841 -1.719,4.681c-25,11.545 -50.241,22.56 -75.394,33.768c27.858,-0.051 55.719,-0.378 83.574,0.008c2.802,0.102 5.274,2.497 5.312,5.419l0,55.394c-0.037,2.846 -2.503,5.379 -5.418,5.42Zm0.687,-44.81l-91.346,0l0,40.623l91.346,0l0,-40.623Zm-66.095,-15.308l-13.123,0l-10.438,10.39l14.424,0l9.137,-10.39Zm32.961,0l-14.029,0l-10.438,10.39l15.33,0l9.137,-10.39Zm30.488,0l-11.556,0l-0.94,0.936l-9.498,9.454l13.105,0l8.889,-10.108l0,-0.282Zm-84.196,-20.822l-5.185,13.601l13.983,-6.261l4.01,-13.075l-12.808,5.735Zm30.068,-13.463l-5.185,13.601l13.975,-6.258l4.01,-13.074l-12.8,5.731Zm30.06,-13.46l-5.185,13.601l11.946,-5.349l4.009,-13.074l-10.77,4.822Z"/><path d="M53.5,96.375l-1.038,-6.001l-24.854,-9.949l1.017,5.906l24.875,10.044Z" style="fill:#ff86cc;"/><path d="M72.674,83.187l-5.316,4.359l19.464,23.735l5.316,-4.359l-19.464,-23.735Z" style="fill:#7eff00;"/><circle cx="31.824" cy="105.576" r="6.721" style="fill:#0d00ff;"/><circle cx="102.67" cy="109.46" r="3.717" style="fill:#ff1c1c;"/><path d="M101.787,80.868l-14.174,8.931l13.719,7.811l0.455,-16.742Z" style="fill:#90ffde;"/><path d="M53.564,104.112l10.167,-7.805l7.536,9.818l-10.168,7.804l-7.535,-9.817Z" style="fill:#8c23c5;"/></g><g><circle cx="27.979" cy="22.405" r="18.371" style="fill:#0f7aff;"/><text x="12.726px" y="19.672px" style="font-family:'Avenir-Black', 'Avenir', sans-serif;font-weight:800;font-size:6.731px;fill:#fff;">C<tspan x="17.505px 23.274px 29.796px 31.957px 37.611px " y="19.672px 19.672px 19.672px 19.672px 19.672px ">OMING</tspan></text><text x="16.383px" y="30.123px" style="font-family:'Avenir-Black', 'Avenir', sans-serif;font-weight:800;font-size:7.402px;fill:#fff;">S<tspan x="20.817px 27.161px 33.505px " y="30.123px 30.123px 30.123px ">OON</tspan></text></g></svg>